<svg width="170" height="98" viewBox="0 0 170 98" fill="none" xmlns="http://www.w3.org/2000/svg">
<path d="M0 21.1865C0 17.4153 0 15.5297 1.17157 14.3581C2.34315 13.1865 4.22876 13.1865 8 13.1865H12C15.7712 13.1865 17.6569 13.1865 18.8284 14.3581C20 15.5297 20 17.4153 20 21.1865V89.6909C20 93.4621 20 95.3477 18.8284 96.5193C17.6569 97.6909 15.7712 97.6909 12 97.6909H8C4.22876 97.6909 2.34315 97.6909 1.17157 96.5193C0 95.3477 0 93.4621 0 89.6909V21.1865Z" fill="#EFCB81"/>
<path d="M30 75.127C30 71.3557 30 69.4701 31.1716 68.2985C32.3431 67.127 34.2288 67.127 38 67.127H42C45.7712 67.127 47.6569 67.127 48.8284 68.2985C50 69.4701 50 71.3557 50 75.127V89.6907C50 93.4619 50 95.3476 48.8284 96.5191C47.6569 97.6907 45.7712 97.6907 42 97.6907H38C34.2288 97.6907 32.3431 97.6907 31.1716 96.5191C30 95.3476 30 93.4619 30 89.6907V75.127Z" fill="#EFCB81"/>
<path d="M60 8C60 4.22876 60 2.34315 61.1716 1.17157C62.3431 0 64.2288 0 68 0H72C75.7712 0 77.6569 0 78.8284 1.17157C80 2.34315 80 4.22876 80 8V89.6912C80 93.4624 80 95.348 78.8284 96.5196C77.6569 97.6912 75.7712 97.6912 72 97.6912H68C64.2288 97.6912 62.3431 97.6912 61.1716 96.5196C60 95.348 60 93.4624 60 89.6912V8Z" fill="#EFCB81"/>
<path d="M90 28.7139C90 24.9426 90 23.057 91.1716 21.8854C92.3431 20.7139 94.2288 20.7139 98 20.7139H102C105.771 20.7139 107.657 20.7139 108.828 21.8854C110 23.057 110 24.9426 110 28.7139V89.6916C110 93.4629 110 95.3485 108.828 96.5201C107.657 97.6916 105.771 97.6916 102 97.6916H98C94.2288 97.6916 92.3431 97.6916 91.1716 96.5201C90 95.3485 90 93.4629 90 89.6916V28.7139Z" fill="#EFCB81"/>
<path d="M120 70.5869C120 66.8157 120 64.9301 121.172 63.7585C122.343 62.5869 124.229 62.5869 128 62.5869H132C135.771 62.5869 137.657 62.5869 138.828 63.7585C140 64.9301 140 66.8157 140 70.5869V89.6915C140 93.4628 140 95.3484 138.828 96.52C137.657 97.6915 135.771 97.6915 132 97.6915H128C124.229 97.6915 122.343 97.6915 121.172 96.52C120 95.3484 120 93.4628 120 89.6915V70.5869Z" fill="#EFCB81"/>
<path d="M150 55.7812C150 52.01 150 50.1244 151.172 48.9528C152.343 47.7812 154.229 47.7812 158 47.7812H162C165.771 47.7812 167.657 47.7812 168.828 48.9528C170 50.1244 170 52.01 170 55.7812V89.6911C170 93.4623 170 95.348 168.828 96.5195C167.657 97.6911 165.771 97.6911 162 97.6911H158C154.229 97.6911 152.343 97.6911 151.172 96.5195C150 95.348 150 93.4623 150 89.6911V55.7812Z" fill="#EFCB81"/>
</svg>
