<svg width="224" height="222" viewBox="0 0 224 222" fill="none" xmlns="http://www.w3.org/2000/svg">
<path d="M110.199 165.7C154.093 165.7 189.679 130.114 189.679 86.0628C189.679 42.0116 153.937 6.42578 110.199 6.42578C66.3046 6.42578 30.7188 42.0116 30.7188 86.0628C30.7188 130.114 66.3046 165.7 110.199 165.7Z" fill="#EAEEF9"/>
<path d="M193.921 8.77888C196.345 8.77888 198.31 6.81366 198.31 4.38944C198.31 1.96522 196.345 0 193.921 0C191.496 0 189.531 1.96522 189.531 4.38944C189.531 6.81366 191.496 8.77888 193.921 8.77888Z" fill="#E7EBF6"/>
<path d="M34.9637 33.7008C37.3879 33.7008 39.3531 31.7355 39.3531 29.3113C39.3531 26.8871 37.3879 24.9219 34.9637 24.9219C32.5394 24.9219 30.5742 26.8871 30.5742 29.3113C30.5742 31.7355 32.5394 33.7008 34.9637 33.7008Z" fill="#E7EBF6"/>
<path d="M8.15182 118.358C12.6539 118.358 16.3036 114.709 16.3036 110.207C16.3036 105.704 12.6539 102.055 8.15182 102.055C3.64969 102.055 0 105.704 0 110.207C0 114.709 3.64969 118.358 8.15182 118.358Z" fill="#E7EBF6"/>
<g filter="url(#filter0_d_2229_37060)">
<path d="M185.942 44.2349V136.472C185.942 139.178 183.687 141.434 180.981 141.434H40.8208C38.1146 141.546 35.8594 139.291 35.8594 136.585V44.2349C35.8594 41.4159 38.1146 39.2734 40.8208 39.2734H180.981C183.8 39.2734 185.942 41.5286 185.942 44.2349Z" fill="url(#paint0_linear_2229_37060)"/>
</g>
<path d="M185.942 44.2349V51.3387H35.8594V44.2349C35.8594 41.4159 38.1146 39.2734 40.8208 39.2734H180.981C183.8 39.2734 185.942 41.5286 185.942 44.2349Z" fill="url(#paint1_linear_2229_37060)"/>
<path d="M90.2034 87.0825C92.5075 87.0825 94.3755 85.2146 94.3755 82.9104C94.3755 80.6062 92.5075 78.7383 90.2034 78.7383C87.8992 78.7383 86.0312 80.6062 86.0312 82.9104C86.0312 85.2146 87.8992 87.0825 90.2034 87.0825Z" fill="#989FB0"/>
<path d="M131.711 87.0825C134.015 87.0825 135.883 85.2146 135.883 82.9104C135.883 80.6062 134.015 78.7383 131.711 78.7383C129.407 78.7383 127.539 80.6062 127.539 82.9104C127.539 85.2146 129.407 87.0825 131.711 87.0825Z" fill="#989FB0"/>
<path d="M117.715 114.485H104.635C102.605 114.485 100.914 112.794 100.914 110.764C100.914 108.734 102.605 107.043 104.635 107.043H117.602C119.632 107.043 121.324 108.734 121.324 110.764C121.436 112.794 119.745 114.485 117.715 114.485Z" fill="#989FB0"/>
<path d="M42.5078 47.3945C43.4419 47.3945 44.1992 46.6372 44.1992 45.7031C44.1992 44.769 43.4419 44.0117 42.5078 44.0117C41.5737 44.0117 40.8164 44.769 40.8164 45.7031C40.8164 46.6372 41.5737 47.3945 42.5078 47.3945Z" fill="#F9FAFB"/>
<path d="M47.8125 47.3945C48.7466 47.3945 49.5039 46.6372 49.5039 45.7031C49.5039 44.769 48.7466 44.0117 47.8125 44.0117C46.8784 44.0117 46.1211 44.769 46.1211 45.7031C46.1211 46.6372 46.8784 47.3945 47.8125 47.3945Z" fill="#F9FAFB"/>
<path d="M53.2226 47.3945C54.1568 47.3945 54.914 46.6372 54.914 45.7031C54.914 44.769 54.1568 44.0117 53.2226 44.0117C52.2885 44.0117 51.5312 44.769 51.5312 45.7031C51.5312 46.6372 52.2885 47.3945 53.2226 47.3945Z" fill="#F9FAFB"/>
<path d="M179.858 27.3217C178.73 27.3217 177.828 26.4196 177.828 25.292V2.62733C177.828 1.49973 178.73 0.597656 179.858 0.597656C180.985 0.597656 181.887 1.49973 181.887 2.62733V25.292C181.887 26.4196 180.985 27.3217 179.858 27.3217Z" fill="#989FB0"/>
<path d="M196.316 44.6859C196.316 43.5583 197.218 42.6562 198.346 42.6562H221.011C222.138 42.6562 223.04 43.5583 223.04 44.6859C223.04 45.8135 222.138 46.7156 221.011 46.7156H198.346C197.218 46.7156 196.316 45.8135 196.316 44.6859Z" fill="#989FB0"/>
<path d="M194.514 30.0239C193.725 29.2346 193.725 27.8814 194.514 27.0921L210.638 11.0803C211.428 10.291 212.781 10.291 213.57 11.0803C214.36 11.8696 214.36 13.2227 213.57 14.012L197.558 30.0239C196.656 30.8132 195.303 30.8132 194.514 30.0239Z" fill="#989FB0"/>
<path d="M57.9608 196.88C58.9208 196.88 59.6888 197.648 59.6888 198.56C59.6888 199.52 58.9208 200.264 57.9608 200.264C57.0488 200.264 56.2808 199.52 56.2808 198.56C56.2808 197.648 57.0488 196.88 57.9608 196.88ZM62.4008 196.88C63.3368 196.88 64.1048 197.648 64.1048 198.56C64.1048 199.52 63.3368 200.264 62.4008 200.264C61.4648 200.264 60.6968 199.52 60.6968 198.56C60.6968 197.648 61.4648 196.88 62.4008 196.88ZM69.3128 200.408V209.312C69.3128 210.8 68.0888 212 66.6008 212H55.9928C53.1608 212 50.8808 209.72 50.8808 206.936V202.88H53.8088V206.936C53.8088 208.16 54.7688 209.096 55.9928 209.096H65.8328C66.1448 209.096 66.3848 208.856 66.3848 208.544V200.408H69.3128ZM77.7669 212H76.6869C74.5269 212 72.7509 210.224 72.7509 208.064V195.224H75.6549V208.064C75.6549 208.64 76.1109 209.096 76.6869 209.096H77.7669V212ZM81.6353 194.888C82.5953 194.888 83.3633 195.656 83.3633 196.568C83.3633 197.504 82.5953 198.272 81.6353 198.272C80.7233 198.272 79.9553 197.504 79.9553 196.568C79.9553 195.656 80.7233 194.888 81.6353 194.888ZM79.1633 212H77.5072C76.6912 212 76.0192 211.328 76.0192 210.536C76.0192 209.696 76.6912 209.096 77.5072 209.096H79.1873C79.8113 209.096 80.2673 208.616 80.2673 208.016V200.408H83.1713V208.016C83.1713 210.2 81.3713 212 79.1633 212ZM91.6185 212H90.5385C88.3785 212 86.6025 210.224 86.6025 208.064V195.224H89.5065V208.064C89.5065 208.64 89.9625 209.096 90.5385 209.096H91.6185V212ZM101.391 209.096C102.183 209.096 102.831 209.72 102.831 210.536C102.831 211.352 102.159 212 101.367 212H99.5668C98.3428 212 97.2388 211.472 96.4468 210.704C95.7268 211.472 94.6708 212 93.4948 212H91.4068C90.5188 212 89.8708 211.376 89.8708 210.536C89.8708 209.72 90.5188 209.096 91.4068 209.096H93.1828C94.0708 209.096 94.8148 208.352 94.8148 207.44V202.376H97.7428V207.464C97.8388 208.376 98.6308 209.096 99.5668 209.096H101.391ZM93.8788 213.992C94.8388 213.992 95.6068 214.76 95.6068 215.672C95.6068 216.632 94.8388 217.376 93.8788 217.376C92.9668 217.376 92.1988 216.632 92.1988 215.672C92.1988 214.76 92.9668 213.992 93.8788 213.992ZM98.3668 213.992C99.3028 213.992 100.071 214.76 100.071 215.672C100.071 216.632 99.3028 217.376 98.3668 217.376C97.4308 217.376 96.6628 216.632 96.6628 215.672C96.6628 214.76 97.4308 213.992 98.3668 213.992ZM103.576 212H101.32C100.504 212 99.8317 211.328 99.8317 210.536C99.8317 209.696 100.504 209.096 101.32 209.096H103.6C104.248 209.096 104.704 208.616 104.704 208.016V200.36H107.608V208.016C107.608 210.2 105.808 212 103.576 212ZM102.544 215.672C102.544 214.76 103.312 213.992 104.224 213.992C105.184 213.992 105.952 214.76 105.952 215.672C105.952 216.632 105.184 217.376 104.224 217.376C103.312 217.376 102.544 216.632 102.544 215.672ZM128.86 209.096C129.7 209.096 130.3 209.768 130.3 210.56C130.3 211.352 129.7 212 128.86 212H128.236C126.796 212 125.476 211.472 124.492 210.608C123.652 211.448 122.476 212 121.252 212H114.7V209.096H121.252C121.828 209.096 122.188 208.832 122.356 208.568C122.596 208.352 122.764 207.944 122.692 207.464L120.748 200.36L123.508 199.616L125.452 206.672C125.476 206.696 125.476 206.72 125.476 206.744L125.548 206.984C125.86 208.232 126.94 209.096 128.236 209.096H128.86ZM142.757 212H128.788C127.996 212 127.3 211.352 127.3 210.536C127.3 209.744 127.996 209.096 128.788 209.096H139.085C138.749 208.88 138.461 208.472 138.461 207.968V207.464C138.461 205.904 137.981 204.8 137.093 204.128C135.365 202.808 132.797 203.192 130.805 203.888L129.629 201.248C132.677 200.096 136.181 199.88 138.821 201.848C140.045 202.736 141.293 204.44 141.293 207.296V207.944C141.293 208.64 141.677 209.096 142.325 209.096H142.757V212ZM135.605 213.92C136.541 213.92 137.309 214.688 137.309 215.6C137.309 216.536 136.541 217.304 135.605 217.304C134.669 217.304 133.901 216.536 133.901 215.6C133.901 214.688 134.669 213.92 135.605 213.92ZM158.164 209.096V212H156.076C155.98 213.512 155.38 214.808 154.3 215.792C152.5 217.496 150.532 217.832 146.26 217.808V214.928C149.14 214.952 151.06 214.904 152.38 213.68C152.716 213.368 152.956 212.912 153.076 212.288L153.1 212H150.676C147.46 212 144.916 209.384 144.916 206.12C144.916 202.904 147.46 200.36 150.676 200.36H156.1V209.096H158.164ZM153.172 209.096V203.264H150.676C149.068 203.264 147.796 204.488 147.796 206.12C147.796 207.776 149.068 209.096 150.676 209.096H153.172ZM160.658 194.888C161.594 194.888 162.362 195.656 162.362 196.568C162.362 197.504 161.594 198.272 160.658 198.272C159.722 198.272 158.954 197.504 158.954 196.568C158.954 195.656 159.722 194.888 160.658 194.888ZM165.098 194.888C166.034 194.888 166.802 195.656 166.802 196.568C166.802 197.504 166.034 198.272 165.098 198.272C164.162 198.272 163.394 197.504 163.394 196.568C163.394 195.656 164.162 194.888 165.098 194.888ZM160.946 212H157.898C157.082 212 156.41 211.328 156.41 210.536C156.41 209.696 157.082 209.096 157.898 209.096H160.946C161.594 209.096 162.05 208.616 162.05 208.016V200.36H164.954V208.016C164.954 210.2 163.154 212 160.946 212ZM178.589 195.248H181.493V208.064C181.493 210.224 179.741 212 177.581 212H168.869V209.096H172.469V198.512H175.373V209.096H177.557C178.133 209.096 178.589 208.64 178.589 208.064V195.248Z" fill="#989FB0"/>
<defs>
<filter id="filter0_d_2229_37060" x="13.8594" y="28.2734" width="194.082" height="146.164" filterUnits="userSpaceOnUse" color-interpolation-filters="sRGB">
<feFlood flood-opacity="0" result="BackgroundImageFix"/>
<feColorMatrix in="SourceAlpha" type="matrix" values="0 0 0 0 0 0 0 0 0 0 0 0 0 0 0 0 0 0 127 0" result="hardAlpha"/>
<feOffset dy="11"/>
<feGaussianBlur stdDeviation="11"/>
<feColorMatrix type="matrix" values="0 0 0 0 0.397708 0 0 0 0 0.47749 0 0 0 0 0.575 0 0 0 0.27 0"/>
<feBlend mode="normal" in2="BackgroundImageFix" result="effect1_dropShadow_2229_37060"/>
<feBlend mode="normal" in="SourceGraphic" in2="effect1_dropShadow_2229_37060" result="shape"/>
</filter>
<linearGradient id="paint0_linear_2229_37060" x1="110.852" y1="36.9103" x2="110.852" y2="142.539" gradientUnits="userSpaceOnUse">
<stop stop-color="#FDFEFF"/>
<stop offset="0.9964" stop-color="#ECF0F5"/>
</linearGradient>
<linearGradient id="paint1_linear_2229_37060" x1="179.989" y1="39.2735" x2="40.6954" y2="45.3061" gradientUnits="userSpaceOnUse">
<stop stop-color="#B0BACC"/>
<stop offset="1" stop-color="#969EAE"/>
</linearGradient>
</defs>
</svg>
