<svg width="57" height="56" viewBox="0 0 57 56" fill="none" xmlns="http://www.w3.org/2000/svg">
<rect x="0.667969" width="56" height="56" rx="28" fill="#E7F7FF"/>
<path d="M43.3496 32.1494H13.9879C13.8186 32.1494 13.6563 32.0821 13.5366 31.9624C13.4169 31.8427 13.3496 31.6803 13.3496 31.5111V27.6813C13.3496 27.512 13.4169 27.3496 13.5366 27.2299C13.6563 27.1102 13.8186 27.043 13.9879 27.043H43.3496C43.5189 27.043 43.6813 27.1102 43.801 27.2299C43.9207 27.3496 43.9879 27.512 43.9879 27.6813V31.5111C43.9879 31.6803 43.9207 31.8427 43.801 31.9624C43.6813 32.0821 43.5189 32.1494 43.3496 32.1494ZM14.6262 30.8728H42.7113V28.3196H14.6262V30.8728Z" fill="#2C69E6"/>
<path d="M41.4358 43.0007H15.9039C15.7346 43.0007 15.5723 42.9335 15.4526 42.8138C15.3329 42.694 15.2656 42.5317 15.2656 42.3624V31.5113C15.2656 31.3421 15.3329 31.1797 15.4526 31.06C15.5723 30.9403 15.7346 30.873 15.9039 30.873H41.4358C41.6051 30.873 41.7675 30.9403 41.8872 31.06C42.0069 31.1797 42.0741 31.3421 42.0741 31.5113V42.3624C42.0741 42.5317 42.0069 42.694 41.8872 42.8138C41.7675 42.9335 41.6051 43.0007 41.4358 43.0007ZM16.5422 41.7241H40.7975V32.1496H16.5422V41.7241Z" fill="#2C69E6"/>
<path d="M35.0527 28.3186H22.2867C22.1174 28.3186 21.9551 28.2514 21.8354 28.1317C21.7157 28.012 21.6484 27.8496 21.6484 27.6803V23.8505C21.6484 23.0041 21.9847 22.1923 22.5832 21.5938C23.1817 20.9953 23.9935 20.659 24.8399 20.659H26.1165V19.3824C26.1165 19.2132 26.1838 19.0508 26.3035 18.9311C26.4232 18.8114 26.5855 18.7441 26.7548 18.7441C26.9241 18.7441 27.0865 18.8114 27.2062 18.9311C27.3259 19.0508 27.3931 19.2132 27.3931 19.3824V21.2973C27.3931 21.4666 27.3259 21.629 27.2062 21.7487C27.0865 21.8684 26.9241 21.9356 26.7548 21.9356H24.8399C24.3321 21.9356 23.845 22.1374 23.4859 22.4965C23.1268 22.8556 22.925 23.3427 22.925 23.8505V27.042H34.4144V23.8505C34.4144 23.3427 34.2126 22.8556 33.8535 22.4965C33.4944 22.1374 33.0074 21.9356 32.4995 21.9356H30.5846C30.4153 21.9356 30.253 21.8684 30.1333 21.7487C30.0136 21.629 29.9463 21.4666 29.9463 21.2973V19.3824C29.9463 19.2132 30.0136 19.0508 30.1333 18.9311C30.253 18.8114 30.4153 18.7441 30.5846 18.7441C30.7539 18.7441 30.9163 18.8114 31.036 18.9311C31.1557 19.0508 31.2229 19.2132 31.2229 19.3824V20.659H32.4995C33.3459 20.659 34.1577 20.9953 34.7562 21.5938C35.3547 22.1923 35.691 23.0041 35.691 23.8505V27.6803C35.691 27.8496 35.6237 28.012 35.504 28.1317C35.3843 28.2514 35.222 28.3186 35.0527 28.3186Z" fill="#2C69E6"/>
<path d="M28.6677 20.6596C27.9102 20.6596 27.1698 20.435 26.54 20.0141C25.9102 19.5933 25.4193 18.9952 25.1294 18.2954C24.8396 17.5956 24.7637 16.8255 24.9115 16.0826C25.0593 15.3397 25.424 14.6573 25.9596 14.1217C26.4952 13.5861 27.1776 13.2214 27.9205 13.0736C28.6634 12.9258 29.4335 13.0017 30.1333 13.2915C30.8331 13.5814 31.4312 14.0723 31.852 14.7021C32.2729 15.3319 32.4975 16.0723 32.4975 16.8298C32.4975 17.8455 32.094 18.8196 31.3757 19.5379C30.6575 20.2561 29.6834 20.6596 28.6677 20.6596ZM28.6677 14.2766C28.1627 14.2766 27.6691 14.4263 27.2492 14.7069C26.8293 14.9874 26.5021 15.3862 26.3088 15.8527C26.1156 16.3193 26.065 16.8326 26.1635 17.3279C26.2621 17.8232 26.5052 18.2781 26.8623 18.6352C27.2194 18.9922 27.6743 19.2354 28.1696 19.3339C28.6648 19.4324 29.1782 19.3819 29.6447 19.1886C30.1113 18.9954 30.51 18.6681 30.7906 18.2483C31.0711 17.8284 31.2209 17.3348 31.2209 16.8298C31.2209 16.1526 30.9519 15.5032 30.4731 15.0244C29.9942 14.5456 29.3448 14.2766 28.6677 14.2766Z" fill="#2C69E6"/>
<path d="M25.4762 27.6801C25.3069 27.6801 25.1445 27.6129 25.0248 27.4932C24.9051 27.3735 24.8379 27.2111 24.8379 27.0418V25.7653C24.8379 25.596 24.9051 25.4336 25.0248 25.3139C25.1445 25.1942 25.3069 25.127 25.4762 25.127C25.6455 25.127 25.8078 25.1942 25.9275 25.3139C26.0472 25.4336 26.1145 25.596 26.1145 25.7653V27.0418C26.1145 27.2111 26.0472 27.3735 25.9275 27.4932C25.8078 27.6129 25.6455 27.6801 25.4762 27.6801Z" fill="#2C69E6"/>
<path d="M24.8423 21.9356H22.9274C22.7581 21.9356 22.5957 21.8684 22.476 21.7487C22.3563 21.629 22.2891 21.4666 22.2891 21.2973V19.3824C22.2891 19.2132 22.3563 19.0508 22.476 18.9311C22.5957 18.8114 22.7581 18.7441 22.9274 18.7441C23.0966 18.7441 23.259 18.8114 23.3787 18.9311C23.4984 19.0508 23.5657 19.2132 23.5657 19.3824V20.659H24.8423C25.0115 20.659 25.1739 20.7263 25.2936 20.846C25.4133 20.9657 25.4806 21.128 25.4806 21.2973C25.4806 21.4666 25.4133 21.629 25.2936 21.7487C25.1739 21.8684 25.0115 21.9356 24.8423 21.9356Z" fill="#2C69E6"/>
<path d="M27.3925 28.3186H14.6266C14.4573 28.3186 14.2949 28.2514 14.1752 28.1317C14.0555 28.012 13.9883 27.8496 13.9883 27.6803V23.8505C13.9883 23.0041 14.3245 22.1923 14.923 21.5938C15.5216 20.9953 16.3333 20.659 17.1798 20.659H18.4564V19.3824C18.4564 19.2132 18.5236 19.0508 18.6433 18.9311C18.763 18.8114 18.9254 18.7441 19.0947 18.7441C19.264 18.7441 19.4263 18.8114 19.546 18.9311C19.6657 19.0508 19.733 19.2132 19.733 19.3824V21.2973C19.733 21.4666 19.6657 21.629 19.546 21.7487C19.4263 21.8684 19.264 21.9356 19.0947 21.9356H17.1798C16.6719 21.9356 16.1848 22.1374 15.8257 22.4965C15.4666 22.8556 15.2649 23.3427 15.2649 23.8505V27.042H27.3925C27.5618 27.042 27.7242 27.1093 27.8439 27.229C27.9636 27.3487 28.0308 27.511 28.0308 27.6803C28.0308 27.8496 27.9636 28.012 27.8439 28.1317C27.7242 28.2514 27.5618 28.3186 27.3925 28.3186Z" fill="#2C69E6"/>
<path d="M21.0095 20.6596C20.252 20.6596 19.5116 20.435 18.8818 20.0141C18.252 19.5933 17.7611 18.9952 17.4712 18.2954C17.1813 17.5956 17.1055 16.8255 17.2533 16.0826C17.4011 15.3397 17.7658 14.6573 18.3014 14.1217C18.837 13.5861 19.5194 13.2214 20.2623 13.0736C21.0052 12.9258 21.7753 13.0017 22.4751 13.2915C23.1749 13.5814 23.773 14.0723 24.1938 14.7021C24.6147 15.3319 24.8393 16.0723 24.8393 16.8298C24.8393 17.8455 24.4358 18.8196 23.7175 19.5379C22.9993 20.2561 22.0252 20.6596 21.0095 20.6596ZM21.0095 14.2766C20.5045 14.2766 20.0109 14.4263 19.591 14.7069C19.1711 14.9874 18.8439 15.3862 18.6506 15.8527C18.4574 16.3193 18.4068 16.8326 18.5053 17.3279C18.6039 17.8232 18.847 18.2781 19.2041 18.6352C19.5612 18.9922 20.0161 19.2354 20.5114 19.3339C21.0066 19.4324 21.52 19.3819 21.9865 19.1886C22.4531 18.9954 22.8518 18.6681 23.1324 18.2483C23.4129 17.8284 23.5627 17.3348 23.5627 16.8298C23.5627 16.1526 23.2937 15.5032 22.8149 15.0244C22.336 14.5456 21.6866 14.2766 21.0095 14.2766Z" fill="#2C69E6"/>
<path d="M17.818 27.6801C17.6487 27.6801 17.4863 27.6129 17.3666 27.4932C17.2469 27.3735 17.1797 27.2111 17.1797 27.0418V25.7653C17.1797 25.596 17.2469 25.4336 17.3666 25.3139C17.4863 25.1942 17.6487 25.127 17.818 25.127C17.9873 25.127 18.1496 25.1942 18.2693 25.3139C18.389 25.4336 18.4563 25.596 18.4563 25.7653V27.0418C18.4563 27.2111 18.389 27.3735 18.2693 27.4932C18.1496 27.6129 17.9873 27.6801 17.818 27.6801Z" fill="#2C69E6"/>
<path d="M34.4145 21.9356H32.4996C32.3303 21.9356 32.168 21.8684 32.0483 21.7487C31.9286 21.629 31.8613 21.4666 31.8613 21.2973C31.8613 21.128 31.9286 20.9657 32.0483 20.846C32.168 20.7263 32.3303 20.659 32.4996 20.659H33.7762V19.3824C33.7762 19.2132 33.8435 19.0508 33.9632 18.9311C34.0829 18.8114 34.2452 18.7441 34.4145 18.7441C34.5838 18.7441 34.7462 18.8114 34.8659 18.9311C34.9856 19.0508 35.0528 19.2132 35.0528 19.3824V21.2973C35.0528 21.4666 34.9856 21.629 34.8659 21.7487C34.7462 21.8684 34.5838 21.9356 34.4145 21.9356Z" fill="#2C69E6"/>
<path d="M42.7109 28.3186H29.9449C29.7757 28.3186 29.6133 28.2514 29.4936 28.1317C29.3739 28.012 29.3066 27.8496 29.3066 27.6803C29.3066 27.511 29.3739 27.3487 29.4936 27.229C29.6133 27.1093 29.7757 27.042 29.9449 27.042H42.0726V23.8505C42.0726 23.3427 41.8709 22.8556 41.5117 22.4965C41.1526 22.1374 40.6656 21.9356 40.1577 21.9356H38.2428C38.0735 21.9356 37.9112 21.8684 37.7915 21.7487C37.6718 21.629 37.6045 21.4666 37.6045 21.2973V19.3824C37.6045 19.2132 37.6718 19.0508 37.7915 18.9311C37.9112 18.8114 38.0735 18.7441 38.2428 18.7441C38.4121 18.7441 38.5745 18.8114 38.6942 18.9311C38.8139 19.0508 38.8811 19.2132 38.8811 19.3824V20.659H40.1577C41.0041 20.659 41.8159 20.9953 42.4144 21.5938C43.013 22.1923 43.3492 23.0041 43.3492 23.8505V27.6803C43.3492 27.8496 43.2819 28.012 43.1622 28.1317C43.0425 28.2514 42.8802 28.3186 42.7109 28.3186Z" fill="#2C69E6"/>
<path d="M36.3298 20.6596C35.5723 20.6596 34.8319 20.435 34.2021 20.0141C33.5723 19.5933 33.0814 18.9952 32.7915 18.2954C32.5017 17.5956 32.4258 16.8255 32.5736 16.0826C32.7214 15.3397 33.0861 14.6573 33.6217 14.1217C34.1573 13.5861 34.8397 13.2214 35.5826 13.0736C36.3255 12.9258 37.0956 13.0017 37.7954 13.2915C38.4952 13.5814 39.0933 14.0723 39.5141 14.7021C39.935 15.3319 40.1596 16.0723 40.1596 16.8298C40.1596 17.8455 39.7561 18.8196 39.0379 19.5379C38.3196 20.2561 37.3455 20.6596 36.3298 20.6596ZM36.3298 14.2766C35.8248 14.2766 35.3312 14.4263 34.9113 14.7069C34.4914 14.9874 34.1642 15.3862 33.9709 15.8527C33.7777 16.3193 33.7271 16.8326 33.8257 17.3279C33.9242 17.8232 34.1673 18.2781 34.5244 18.6352C34.8815 18.9922 35.3364 19.2354 35.8317 19.3339C36.327 19.4324 36.8403 19.3819 37.3069 19.1886C37.7734 18.9954 38.1721 18.6681 38.4527 18.2483C38.7332 17.8284 38.883 17.3348 38.883 16.8298C38.883 16.1526 38.614 15.5032 38.1352 15.0244C37.6564 14.5456 37.0069 14.2766 36.3298 14.2766Z" fill="#2C69E6"/>
<path d="M39.5211 27.6801C39.3518 27.6801 39.1895 27.6129 39.0698 27.4932C38.9501 27.3735 38.8828 27.2111 38.8828 27.0418V25.7653C38.8828 25.596 38.9501 25.4336 39.0698 25.3139C39.1895 25.1942 39.3518 25.127 39.5211 25.127C39.6904 25.127 39.8528 25.1942 39.9725 25.3139C40.0922 25.4336 40.1594 25.596 40.1594 25.7653V27.0418C40.1594 27.2111 40.0922 27.3735 39.9725 27.4932C39.8528 27.6129 39.6904 27.6801 39.5211 27.6801Z" fill="#2C69E6"/>
<path d="M31.861 27.6801C31.6917 27.6801 31.5293 27.6129 31.4096 27.4932C31.2899 27.3735 31.2227 27.2111 31.2227 27.0418V25.7653C31.2227 25.596 31.2899 25.4336 31.4096 25.3139C31.5293 25.1942 31.6917 25.127 31.861 25.127C32.0302 25.127 32.1926 25.1942 32.3123 25.3139C32.432 25.4336 32.4993 25.596 32.4993 25.7653V27.0418C32.4993 27.2111 32.432 27.3735 32.3123 27.4932C32.1926 27.6129 32.0302 27.6801 31.861 27.6801Z" fill="#2C69E6"/>
<path d="M24.2017 34.0641C24.2017 33.8948 24.269 33.7324 24.3887 33.6127C24.5084 33.493 24.6707 33.4258 24.84 33.4258C25.0093 33.4258 25.1717 33.493 25.2914 33.6127C25.4111 33.7324 25.4783 33.8948 25.4783 34.0641C25.4783 34.2334 25.4111 34.3957 25.2914 34.5154C25.1717 34.6351 25.0093 34.7024 24.84 34.7024C24.6707 34.7024 24.5084 34.6351 24.3887 34.5154C24.269 34.3957 24.2017 34.2334 24.2017 34.0641ZM22.2868 34.0641C22.2868 33.8948 22.3541 33.7324 22.4738 33.6127C22.5935 33.493 22.7558 33.4258 22.9251 33.4258C23.0944 33.4258 23.2568 33.493 23.3765 33.6127C23.4962 33.7324 23.5634 33.8948 23.5634 34.0641C23.5634 34.2334 23.4962 34.3957 23.3765 34.5154C23.2568 34.6351 23.0944 34.7024 22.9251 34.7024C22.7558 34.7024 22.5935 34.6351 22.4738 34.5154C22.3541 34.3957 22.2868 34.2334 22.2868 34.0641ZM20.3719 34.0641C20.3719 33.8948 20.4392 33.7324 20.5589 33.6127C20.6786 33.493 20.8409 33.4258 21.0102 33.4258C21.1795 33.4258 21.3419 33.493 21.4616 33.6127C21.5813 33.7324 21.6485 33.8948 21.6485 34.0641C21.6485 34.2334 21.5813 34.3957 21.4616 34.5154C21.3419 34.6351 21.1795 34.7024 21.0102 34.7024C20.8409 34.7024 20.6786 34.6351 20.5589 34.5154C20.4392 34.3957 20.3719 34.2334 20.3719 34.0641ZM18.457 34.0641C18.457 33.8948 18.5243 33.7324 18.644 33.6127C18.7637 33.493 18.926 33.4258 19.0953 33.4258C19.2646 33.4258 19.427 33.493 19.5467 33.6127C19.6664 33.7324 19.7336 33.8948 19.7336 34.0641C19.7336 34.2334 19.6664 34.3957 19.5467 34.5154C19.427 34.6351 19.2646 34.7024 19.0953 34.7024C18.926 34.7024 18.7637 34.6351 18.644 34.5154C18.5243 34.3957 18.457 34.2334 18.457 34.0641Z" fill="#2C69E6"/>
<path d="M28.6689 25.1269C28.5438 25.1259 28.4217 25.0882 28.3179 25.0184L26.403 23.7418C26.3247 23.6998 26.2561 23.642 26.2014 23.5719C26.1468 23.5019 26.1074 23.4213 26.0857 23.3351C26.064 23.249 26.0606 23.1593 26.0755 23.0718C26.0905 22.9842 26.1236 22.9008 26.1726 22.8267C26.2217 22.7527 26.2857 22.6897 26.3604 22.6418C26.4352 22.5939 26.5192 22.5621 26.607 22.5485C26.6947 22.5349 26.7844 22.5398 26.8701 22.5628C26.9559 22.5858 27.0359 22.6265 27.1051 22.6822L28.6689 23.7226L30.2328 22.6822C30.3019 22.6265 30.382 22.5858 30.4677 22.5628C30.5535 22.5398 30.6432 22.5349 30.7309 22.5485C30.8187 22.5621 30.9027 22.5939 30.9774 22.6418C31.0522 22.6897 31.1162 22.7527 31.1653 22.8267C31.2143 22.9008 31.2474 22.9842 31.2624 23.0718C31.2773 23.1593 31.2738 23.249 31.2522 23.3351C31.2305 23.4213 31.1911 23.5019 31.1364 23.5719C31.0818 23.642 31.0132 23.6998 30.9349 23.7418L29.02 25.0184C28.9161 25.0882 28.7941 25.1259 28.6689 25.1269Z" fill="#2C69E6"/>
<path d="M21.0068 25.1269C20.8817 25.1259 20.7596 25.0882 20.6558 25.0184L18.7409 23.7418C18.6626 23.6998 18.594 23.642 18.5393 23.5719C18.4847 23.5019 18.4453 23.4213 18.4236 23.3351C18.4019 23.249 18.3985 23.1593 18.4134 23.0718C18.4284 22.9842 18.4615 22.9008 18.5105 22.8267C18.5596 22.7527 18.6235 22.6897 18.6983 22.6418C18.7731 22.5939 18.8571 22.5621 18.9448 22.5485C19.0326 22.5349 19.1222 22.5398 19.208 22.5628C19.2938 22.5858 19.3738 22.6265 19.443 22.6822L21.0068 23.7226L21.9451 23.0844C22.0853 23.0092 22.2484 22.989 22.4027 23.0279C22.5569 23.0667 22.6911 23.1617 22.7789 23.2943C22.8668 23.4268 22.902 23.5874 22.8776 23.7446C22.8533 23.9018 22.7711 24.0442 22.6473 24.1439L21.3707 24.9992C21.2654 25.0783 21.1384 25.1229 21.0068 25.1269Z" fill="#2C69E6"/>
<path d="M36.3275 25.1273C36.2024 25.1263 36.0803 25.0886 35.9765 25.0188L34.6999 24.1635C34.6216 24.1215 34.553 24.0636 34.4983 23.9936C34.4437 23.9236 34.4043 23.8429 34.3826 23.7568C34.3609 23.6707 34.3574 23.581 34.3724 23.4934C34.3874 23.4059 34.4204 23.3224 34.4695 23.2484C34.5186 23.1744 34.5825 23.1114 34.6573 23.0635C34.7321 23.0156 34.8161 22.9838 34.9038 22.9702C34.9916 22.9566 35.0812 22.9615 35.167 22.9845C35.2528 23.0075 35.3328 23.0482 35.402 23.1039L36.3403 23.7422L37.9041 22.7018C37.9733 22.646 38.0533 22.6054 38.1391 22.5824C38.2249 22.5593 38.3145 22.5545 38.4023 22.5681C38.49 22.5817 38.574 22.6134 38.6488 22.6613C38.7236 22.7092 38.7875 22.7722 38.8366 22.8463C38.8857 22.9203 38.9187 23.0038 38.9337 23.0913C38.9487 23.1788 38.9452 23.2685 38.9235 23.3547C38.9018 23.4408 38.8624 23.5214 38.8078 23.5915C38.7531 23.6615 38.6845 23.7193 38.6062 23.7613L36.6913 25.0379C36.5817 25.1034 36.455 25.1346 36.3275 25.1273Z" fill="#2C69E6"/>
<path d="M28.0309 28.3188C27.8616 28.3188 27.6992 28.2516 27.5795 28.1319C27.4598 28.0121 27.3926 27.8498 27.3926 27.6805V25.7656C27.3932 25.6657 27.4172 25.5673 27.4628 25.4784L28.1011 24.2018C28.1842 24.0637 28.3164 23.9621 28.4713 23.9175C28.6262 23.8729 28.7922 23.8885 28.936 23.9613C29.0798 24.034 29.1908 24.1584 29.2467 24.3096C29.3026 24.4608 29.2992 24.6275 29.2373 24.7763L28.6692 25.9188V27.6805C28.6692 27.8498 28.6019 28.0121 28.4822 28.1319C28.3625 28.2516 28.2002 28.3188 28.0309 28.3188Z" fill="#2C69E6"/>
<path d="M29.3082 28.3188C29.1389 28.3188 28.9765 28.2516 28.8568 28.1319C28.7371 28.0121 28.6699 27.8498 28.6699 27.6805V25.9188L28.1018 24.7763C28.0398 24.6275 28.0364 24.4608 28.0923 24.3096C28.1482 24.1584 28.2592 24.034 28.403 23.9613C28.5468 23.8885 28.7129 23.8729 28.8677 23.9175C29.0226 23.9621 29.1549 24.0637 29.238 24.2018L29.8763 25.4784C29.9218 25.5673 29.9459 25.6657 29.9465 25.7656V27.6805C29.9465 27.8498 29.8792 28.0121 29.7595 28.1319C29.6398 28.2516 29.4775 28.3188 29.3082 28.3188Z" fill="#2C69E6"/>
</svg>
