<svg width="20" height="20" viewBox="0 0 20 20" fill="none" xmlns="http://www.w3.org/2000/svg">
<path fill-rule="evenodd" clip-rule="evenodd" d="M7.29892 4.16602H12.7011C13.3719 4.16601 13.9255 4.166 14.3765 4.20284C14.8449 4.24112 15.2755 4.32325 15.68 4.52933C16.3072 4.84891 16.8171 5.35884 17.1367 5.98605C17.3428 6.39049 17.4249 6.82108 17.4632 7.28949C17.5 7.74049 17.5 8.29411 17.5 8.96491V12.7005C17.5 13.3713 17.5 13.9249 17.4632 14.3759C17.4249 14.8443 17.3428 15.2749 17.1367 15.6793C16.8171 16.3065 16.3072 16.8165 15.68 17.136C15.2755 17.3421 14.8449 17.4243 14.3765 17.4625C13.9255 17.4994 13.3719 17.4994 12.7011 17.4993H7.29894C6.62812 17.4994 6.07448 17.4994 5.62348 17.4625C5.15506 17.4243 4.72448 17.3421 4.32003 17.136C3.69283 16.8165 3.18289 16.3065 2.86331 15.6793C2.65724 15.2749 2.5751 14.8443 2.53683 14.3759C2.49998 13.9249 2.49999 13.3712 2.5 12.7004V8.96493C2.49999 8.29413 2.49998 7.74049 2.53683 7.28949C2.5751 6.82108 2.65724 6.39049 2.86331 5.98605C3.18289 5.35884 3.69283 4.84891 4.32003 4.52933C4.72448 4.32325 5.15506 4.24112 5.62348 4.20284C6.07448 4.166 6.62811 4.16601 7.29892 4.16602ZM5.7592 5.86398C5.39385 5.89383 5.20702 5.94793 5.07668 6.01434C4.76308 6.17413 4.50811 6.4291 4.34832 6.7427C4.28191 6.87303 4.22781 7.05987 4.19796 7.42521C4.16732 7.80029 4.16667 8.28553 4.16667 8.99935V12.666C4.16667 13.3798 4.16732 13.8651 4.19796 14.2402C4.22781 14.6055 4.28191 14.7923 4.34832 14.9227C4.50811 15.2363 4.76308 15.4912 5.07668 15.651C5.20702 15.7174 5.39385 15.7715 5.7592 15.8014C6.13427 15.832 6.61952 15.8327 7.33333 15.8327H12.6667C13.3805 15.8327 13.8657 15.832 14.2408 15.8014C14.6061 15.7715 14.793 15.7174 14.9233 15.651C15.2369 15.4912 15.4919 15.2363 15.6517 14.9227C15.7181 14.7923 15.7722 14.6055 15.802 14.2402C15.8327 13.8651 15.8333 13.3798 15.8333 12.666V8.99935C15.8333 8.28553 15.8327 7.80029 15.802 7.42521C15.7722 7.05987 15.7181 6.87303 15.6517 6.7427C15.4919 6.4291 15.2369 6.17413 14.9233 6.01434C14.793 5.94793 14.6061 5.89383 14.2408 5.86398C13.8657 5.83333 13.3805 5.83268 12.6667 5.83268H7.33333C6.61952 5.83268 6.13427 5.83333 5.7592 5.86398Z" fill="#686C71"/>
<path d="M7.4987 3.33333C7.4987 2.8731 7.1256 2.5 6.66536 2.5C6.20513 2.5 5.83203 2.8731 5.83203 3.33333V5C5.83203 5.46024 6.20513 5.83333 6.66536 5.83333C7.1256 5.83333 7.4987 5.46024 7.4987 5V3.33333Z" fill="#686C71"/>
<path d="M14.1654 3.33333C14.1654 2.8731 13.7923 2.5 13.332 2.5C12.8718 2.5 12.4987 2.8731 12.4987 3.33333V5C12.4987 5.46024 12.8718 5.83333 13.332 5.83333C13.7923 5.83333 14.1654 5.46024 14.1654 5V3.33333Z" fill="#686C71"/>
<path fill-rule="evenodd" clip-rule="evenodd" d="M6.66536 10.0007C7.1256 10.0007 7.4987 9.62755 7.4987 9.16732C7.4987 8.70708 7.1256 8.33398 6.66536 8.33398C6.20513 8.33398 5.83203 8.70708 5.83203 9.16732C5.83203 9.62755 6.20513 10.0007 6.66536 10.0007ZM10.832 9.16732C10.832 9.62755 10.4589 10.0007 9.9987 10.0007C9.53846 10.0007 9.16536 9.62755 9.16536 9.16732C9.16536 8.70708 9.53846 8.33398 9.9987 8.33398C10.4589 8.33398 10.832 8.70708 10.832 9.16732ZM14.1654 9.16732C14.1654 9.62755 13.7923 10.0007 13.332 10.0007C12.8718 10.0007 12.4987 9.62755 12.4987 9.16732C12.4987 8.70708 12.8718 8.33398 13.332 8.33398C13.7923 8.33398 14.1654 8.70708 14.1654 9.16732ZM10.832 12.5007C10.832 12.9609 10.4589 13.334 9.9987 13.334C9.53846 13.334 9.16536 12.9609 9.16536 12.5007C9.16536 12.0404 9.53846 11.6673 9.9987 11.6673C10.4589 11.6673 10.832 12.0404 10.832 12.5007ZM6.66536 13.334C7.1256 13.334 7.4987 12.9609 7.4987 12.5007C7.4987 12.0404 7.1256 11.6673 6.66536 11.6673C6.20513 11.6673 5.83203 12.0404 5.83203 12.5007C5.83203 12.9609 6.20513 13.334 6.66536 13.334Z" fill="#686C71"/>
</svg>
