<svg width="56" height="56" viewBox="0 0 56 56" fill="none" xmlns="http://www.w3.org/2000/svg">
<rect width="56" height="56" rx="28" fill="#DAD3FE"/>
<path fill-rule="evenodd" clip-rule="evenodd" d="M29.25 21.75C29.25 21.0596 28.6904 20.5 28 20.5C27.3096 20.5 26.75 21.0596 26.75 21.75V29.25C26.75 29.5815 26.8817 29.8994 27.1161 30.1339L30.8661 33.8839C31.3543 34.372 32.1457 34.372 32.6339 33.8839C33.122 33.3957 33.122 32.6043 32.6339 32.1161L29.25 28.7323V21.75ZM36.8384 36.8384C34.4777 39.1996 31.3384 40.5 28 40.5C24.6612 40.5 21.5223 39.1996 19.1616 36.8384C16.8005 34.4777 15.5 31.3388 15.5 28C15.5 24.6616 16.8005 21.5227 19.1616 19.1616C21.5223 16.8004 24.6612 15.5 28 15.5C31.3384 15.5 34.4777 16.8004 36.8384 19.1616C39.1995 21.5227 40.5 24.6616 40.5 28C40.5 31.3388 39.1995 34.4777 36.8384 36.8384ZM28 13C23.9931 13 20.2267 14.5605 17.3936 17.3941C14.5605 20.2267 13 23.9936 13 28C13 32.0064 14.5605 35.7733 17.3936 38.6059C20.2267 41.4395 23.9931 43 28 43C32.0064 43 35.7728 41.4395 38.6059 38.6059C41.4395 35.7733 43 32.0064 43 28C43 23.9936 41.4395 20.2267 38.6064 17.3941C35.7728 14.5605 32.0064 13 28 13Z" fill="#5948A2"/>
</svg>
