<svg width="22" height="20" viewBox="0 0 22 20" fill="none" xmlns="http://www.w3.org/2000/svg">
<path d="M11.0059 14V19M11.0059 14L17.0059 19M11.0059 14L5.00586 19M20.0059 1V9.2C20.0059 10.8802 20.0059 11.7202 19.6789 12.362C19.3913 12.9265 18.9323 13.3854 18.3678 13.673C17.7261 14 16.886 14 15.2059 14H6.80586C5.1257 14 4.28562 14 3.64389 13.673C3.0794 13.3854 2.62046 12.9265 2.33284 12.362C2.00586 11.7202 2.00586 10.8802 2.00586 9.2V1M7.00586 7V10M11.0059 5V10M15.0059 9V10M21.0059 1H1.00586" stroke="#001D66" stroke-width="2" stroke-linecap="round" stroke-linejoin="round"/>
</svg>
