<svg width="17" height="16" viewBox="0 0 17 16" fill="none" xmlns="http://www.w3.org/2000/svg">
<path d="M16.6603 10.2137H1.00058C0.910298 10.2137 0.823708 10.1778 0.759866 10.114C0.696023 10.0501 0.660156 9.96352 0.660156 9.87323V7.83066C0.660156 7.74038 0.696023 7.65379 0.759866 7.58994C0.823708 7.5261 0.910298 7.49023 1.00058 7.49023H16.6603C16.7506 7.49023 16.8372 7.5261 16.901 7.58994C16.9649 7.65379 17.0007 7.74038 17.0007 7.83066V9.87323C17.0007 9.96352 16.9649 10.0501 16.901 10.114C16.8372 10.1778 16.7506 10.2137 16.6603 10.2137ZM1.34101 9.53281H16.3199V8.17109H1.34101V9.53281Z" fill="#2C69E6"/>
<path d="M15.6373 15.9994H2.02012C1.92983 15.9994 1.84324 15.9635 1.7794 15.8997C1.71555 15.8358 1.67969 15.7493 1.67969 15.659V9.87168C1.67969 9.78139 1.71555 9.6948 1.7794 9.63096C1.84324 9.56712 1.92983 9.53125 2.02012 9.53125H15.6373C15.7275 9.53125 15.8141 9.56712 15.878 9.63096C15.9418 9.6948 15.9777 9.78139 15.9777 9.87168V15.659C15.9777 15.7493 15.9418 15.8358 15.878 15.8997C15.8141 15.9635 15.7275 15.9994 15.6373 15.9994ZM2.36054 15.3185H15.2968V10.2121H2.36054V15.3185Z" fill="#2C69E6"/>
<path d="M12.2349 8.17088H5.42637C5.33608 8.17088 5.24949 8.13502 5.18565 8.07117C5.1218 8.00733 5.08594 7.92074 5.08594 7.83045V5.78788C5.08594 5.33645 5.26527 4.9035 5.58448 4.58429C5.9037 4.26507 6.33664 4.08574 6.78808 4.08574H7.46894V3.40488C7.46894 3.31459 7.5048 3.228 7.56865 3.16416C7.63249 3.10032 7.71908 3.06445 7.80937 3.06445C7.89965 3.06445 7.98624 3.10032 8.05009 3.16416C8.11393 3.228 8.1498 3.31459 8.1498 3.40488V4.42617C8.1498 4.51646 8.11393 4.60304 8.05009 4.66689C7.98624 4.73073 7.89965 4.7666 7.80937 4.7666H6.78808C6.51722 4.7666 6.25745 4.8742 6.06592 5.06572C5.87439 5.25725 5.76679 5.51702 5.76679 5.78788V7.49003H11.8945V5.78788C11.8945 5.51702 11.7869 5.25725 11.5954 5.06572C11.4039 4.8742 11.1441 4.7666 10.8732 4.7666H9.85194C9.76165 4.7666 9.67506 4.73073 9.61122 4.66689C9.54738 4.60304 9.51151 4.51646 9.51151 4.42617V3.40488C9.51151 3.31459 9.54738 3.228 9.61122 3.16416C9.67506 3.10032 9.76165 3.06445 9.85194 3.06445C9.94223 3.06445 10.0288 3.10032 10.0927 3.16416C10.1565 3.228 10.1924 3.31459 10.1924 3.40488V4.08574H10.8732C11.3247 4.08574 11.7576 4.26507 12.0768 4.58429C12.396 4.9035 12.5754 5.33645 12.5754 5.78788V7.83045C12.5754 7.92074 12.5395 8.00733 12.4757 8.07117C12.4118 8.13502 12.3252 8.17088 12.2349 8.17088Z" fill="#2C69E6"/>
<path d="M8.83164 4.08514C8.42765 4.08514 8.03274 3.96535 7.69684 3.74091C7.36094 3.51647 7.09914 3.19746 6.94454 2.82423C6.78995 2.451 6.7495 2.04031 6.82831 1.64409C6.90712 1.24787 7.10166 0.883915 7.38732 0.598256C7.67298 0.312597 8.03693 0.118061 8.43315 0.0392484C8.82937 -0.0395647 9.24006 0.000885018 9.61329 0.155482C9.98652 0.31008 10.3055 0.571881 10.53 0.90778C10.7544 1.24368 10.8742 1.63859 10.8742 2.04257C10.8742 2.5843 10.659 3.10383 10.276 3.48689C9.8929 3.86995 9.37336 4.08514 8.83164 4.08514ZM8.83164 0.680858C8.56231 0.680858 8.29904 0.760721 8.07511 0.910349C7.85117 1.05998 7.67664 1.27265 7.57358 1.52147C7.47051 1.77029 7.44354 2.04408 7.49609 2.30823C7.54863 2.57238 7.67832 2.81501 7.86876 3.00545C8.0592 3.19589 8.30183 3.32558 8.56598 3.37812C8.83012 3.43066 9.10392 3.4037 9.35274 3.30063C9.60156 3.19757 9.81423 3.02303 9.96386 2.7991C10.1135 2.57517 10.1933 2.31189 10.1933 2.04257C10.1933 1.68142 10.0499 1.33507 9.79451 1.07969C9.53914 0.824324 9.19278 0.680858 8.83164 0.680858Z" fill="#2C69E6"/>
<path d="M7.12949 7.83046C7.0392 7.83046 6.95261 7.7946 6.88877 7.73076C6.82493 7.66691 6.78906 7.58032 6.78906 7.49004V6.80918C6.78906 6.71889 6.82493 6.6323 6.88877 6.56846C6.95261 6.50462 7.0392 6.46875 7.12949 6.46875C7.21978 6.46875 7.30637 6.50462 7.37021 6.56846C7.43405 6.6323 7.46992 6.71889 7.46992 6.80918V7.49004C7.46992 7.58032 7.43405 7.66691 7.37021 7.73076C7.30637 7.7946 7.21978 7.83046 7.12949 7.83046Z" fill="#2C69E6"/>
<path d="M6.7875 4.7666H5.76621C5.67592 4.7666 5.58933 4.73073 5.52549 4.66689C5.46165 4.60304 5.42578 4.51645 5.42578 4.42617V3.40488C5.42578 3.31459 5.46165 3.228 5.52549 3.16416C5.58933 3.10032 5.67592 3.06445 5.76621 3.06445C5.8565 3.06445 5.94309 3.10032 6.00693 3.16416C6.07077 3.228 6.10664 3.31459 6.10664 3.40488V4.08574H6.7875C6.87778 4.08574 6.96437 4.1216 7.02822 4.18545C7.09206 4.24929 7.12792 4.33588 7.12792 4.42617C7.12792 4.51645 7.09206 4.60304 7.02822 4.66689C6.96437 4.73073 6.87778 4.7666 6.7875 4.7666Z" fill="#2C69E6"/>
<path d="M8.149 8.17088H1.34043C1.25014 8.17088 1.16355 8.13502 1.09971 8.07117C1.03587 8.00733 1 7.92074 1 7.83045V5.78788C1 5.33645 1.17933 4.9035 1.49855 4.58429C1.81776 4.26507 2.25071 4.08574 2.70214 4.08574H3.383V3.40488C3.383 3.31459 3.41887 3.228 3.48271 3.16416C3.54655 3.10032 3.63314 3.06445 3.72343 3.06445C3.81372 3.06445 3.90031 3.10032 3.96415 3.16416C4.02799 3.228 4.06386 3.31459 4.06386 3.40488V4.42617C4.06386 4.51646 4.02799 4.60304 3.96415 4.66689C3.90031 4.73073 3.81372 4.7666 3.72343 4.7666H2.70214C2.43128 4.7666 2.17151 4.8742 1.97998 5.06572C1.78846 5.25725 1.68086 5.51702 1.68086 5.78788V7.49003H8.149C8.23929 7.49003 8.32588 7.52589 8.38972 7.58973C8.45356 7.65358 8.48943 7.74017 8.48943 7.83045C8.48943 7.92074 8.45356 8.00733 8.38972 8.07117C8.32588 8.13502 8.23929 8.17088 8.149 8.17088Z" fill="#2C69E6"/>
<path d="M4.7457 4.08514C4.34172 4.08514 3.9468 3.96535 3.61091 3.74091C3.27501 3.51647 3.0132 3.19746 2.85861 2.82423C2.70401 2.451 2.66356 2.04031 2.74237 1.64409C2.82119 1.24787 3.01572 0.883915 3.30138 0.598256C3.58704 0.312597 3.95099 0.118061 4.34721 0.0392484C4.74343 -0.0395647 5.15412 0.000885018 5.52736 0.155482C5.90059 0.31008 6.21959 0.571881 6.44403 0.90778C6.66847 1.24368 6.78827 1.63859 6.78827 2.04257C6.78827 2.5843 6.57307 3.10383 6.19001 3.48689C5.80696 3.86995 5.28742 4.08514 4.7457 4.08514ZM4.7457 0.680858C4.47638 0.680858 4.2131 0.760721 3.98917 0.910349C3.76524 1.05998 3.5907 1.27265 3.48764 1.52147C3.38457 1.77029 3.35761 2.04408 3.41015 2.30823C3.46269 2.57238 3.59238 2.81501 3.78282 3.00545C3.97326 3.19589 4.21589 3.32558 4.48004 3.37812C4.74419 3.43066 5.01798 3.4037 5.2668 3.30063C5.51562 3.19757 5.72829 3.02303 5.87792 2.7991C6.02755 2.57517 6.10741 2.31189 6.10741 2.04257C6.10741 1.68142 5.96395 1.33507 5.70858 1.07969C5.4532 0.824324 5.10685 0.680858 4.7457 0.680858Z" fill="#2C69E6"/>
<path d="M3.04355 7.83046C2.95327 7.83046 2.86668 7.7946 2.80283 7.73076C2.73899 7.66691 2.70312 7.58032 2.70312 7.49004V6.80918C2.70312 6.71889 2.73899 6.6323 2.80283 6.56846C2.86668 6.50462 2.95327 6.46875 3.04355 6.46875C3.13384 6.46875 3.22043 6.50462 3.28427 6.56846C3.34812 6.6323 3.38398 6.71889 3.38398 6.80918V7.49004C3.38398 7.58032 3.34812 7.66691 3.28427 7.73076C3.22043 7.7946 3.13384 7.83046 3.04355 7.83046Z" fill="#2C69E6"/>
<path d="M11.893 4.7666H10.8717C10.7814 4.7666 10.6948 4.73073 10.631 4.66689C10.5671 4.60304 10.5312 4.51645 10.5312 4.42617C10.5312 4.33588 10.5671 4.24929 10.631 4.18545C10.6948 4.1216 10.7814 4.08574 10.8717 4.08574H11.5525V3.40488C11.5525 3.31459 11.5884 3.228 11.6522 3.16416C11.7161 3.10032 11.8027 3.06445 11.893 3.06445C11.9833 3.06445 12.0698 3.10032 12.1337 3.16416C12.1975 3.228 12.2334 3.31459 12.2334 3.40488V4.42617C12.2334 4.51645 12.1975 4.60304 12.1337 4.66689C12.0698 4.73073 11.9833 4.7666 11.893 4.7666Z" fill="#2C69E6"/>
<path d="M16.3209 8.17088H9.5123C9.42202 8.17088 9.33543 8.13502 9.27158 8.07117C9.20774 8.00733 9.17188 7.92074 9.17188 7.83045C9.17188 7.74017 9.20774 7.65358 9.27158 7.58973C9.33543 7.52589 9.42202 7.49003 9.5123 7.49003H15.9804V5.78788C15.9804 5.51702 15.8728 5.25725 15.6813 5.06572C15.4898 4.8742 15.23 4.7666 14.9592 4.7666H13.9379C13.8476 4.7666 13.761 4.73073 13.6972 4.66689C13.6333 4.60304 13.5974 4.51646 13.5974 4.42617V3.40488C13.5974 3.31459 13.6333 3.228 13.6972 3.16416C13.761 3.10032 13.8476 3.06445 13.9379 3.06445C14.0282 3.06445 14.1148 3.10032 14.1786 3.16416C14.2424 3.228 14.2783 3.31459 14.2783 3.40488V4.08574H14.9592C15.4106 4.08574 15.8435 4.26507 16.1628 4.58429C16.482 4.9035 16.6613 5.33645 16.6613 5.78788V7.83045C16.6613 7.92074 16.6254 8.00733 16.5616 8.07117C16.4978 8.13502 16.4112 8.17088 16.3209 8.17088Z" fill="#2C69E6"/>
<path d="M12.9137 4.08514C12.5097 4.08514 12.1148 3.96535 11.7789 3.74091C11.443 3.51647 11.1812 3.19746 11.0266 2.82423C10.872 2.451 10.8315 2.04031 10.9103 1.64409C10.9892 1.24787 11.1837 0.883915 11.4693 0.598256C11.755 0.312597 12.119 0.118061 12.5152 0.0392484C12.9114 -0.0395647 13.3221 0.000885018 13.6953 0.155482C14.0686 0.31008 14.3876 0.571881 14.612 0.90778C14.8364 1.24368 14.9562 1.63859 14.9562 2.04257C14.9562 2.5843 14.741 3.10383 14.358 3.48689C13.9749 3.86995 13.4554 4.08514 12.9137 4.08514ZM12.9137 0.680858C12.6443 0.680858 12.3811 0.760721 12.1571 0.910349C11.9332 1.05998 11.7587 1.27265 11.6556 1.52147C11.5525 1.77029 11.5256 2.04408 11.5781 2.30823C11.6307 2.57238 11.7604 2.81501 11.9508 3.00545C12.1412 3.19589 12.3839 3.32558 12.648 3.37812C12.9122 3.43066 13.186 3.4037 13.4348 3.30063C13.6836 3.19757 13.8963 3.02303 14.0459 2.7991C14.1955 2.57517 14.2754 2.31189 14.2754 2.04257C14.2754 1.68142 14.1319 1.33507 13.8765 1.07969C13.6212 0.824324 13.2748 0.680858 12.9137 0.680858Z" fill="#2C69E6"/>
<path d="M14.6178 7.83046C14.5275 7.83046 14.4409 7.7946 14.3771 7.73076C14.3132 7.66691 14.2773 7.58032 14.2773 7.49004V6.80918C14.2773 6.71889 14.3132 6.6323 14.3771 6.56846C14.4409 6.50462 14.5275 6.46875 14.6178 6.46875C14.7081 6.46875 14.7946 6.50462 14.8585 6.56846C14.9223 6.6323 14.9582 6.71889 14.9582 6.80918V7.49004C14.9582 7.58032 14.9223 7.66691 14.8585 7.73076C14.7946 7.7946 14.7081 7.83046 14.6178 7.83046Z" fill="#2C69E6"/>
<path d="M10.5318 7.83046C10.4415 7.83046 10.355 7.7946 10.2911 7.73076C10.2273 7.66691 10.1914 7.58032 10.1914 7.49004V6.80918C10.1914 6.71889 10.2273 6.6323 10.2911 6.56846C10.355 6.50462 10.4415 6.46875 10.5318 6.46875C10.6221 6.46875 10.7087 6.50462 10.7726 6.56846C10.8364 6.6323 10.8723 6.71889 10.8723 6.80918V7.49004C10.8723 7.58032 10.8364 7.66691 10.7726 7.73076C10.7087 7.7946 10.6221 7.83046 10.5318 7.83046Z" fill="#2C69E6"/>
<path d="M6.45058 11.235C6.45058 11.1447 6.48644 11.0581 6.55029 10.9942C6.61413 10.9304 6.70072 10.8945 6.79101 10.8945C6.88129 10.8945 6.96788 10.9304 7.03172 10.9942C7.09557 11.0581 7.13143 11.1447 7.13143 11.235C7.13143 11.3252 7.09557 11.4118 7.03172 11.4757C6.96788 11.5395 6.88129 11.5754 6.79101 11.5754C6.70072 11.5754 6.61413 11.5395 6.55029 11.4757C6.48644 11.4118 6.45058 11.3252 6.45058 11.235ZM5.42929 11.235C5.42929 11.1447 5.46516 11.0581 5.529 10.9942C5.59284 10.9304 5.67943 10.8945 5.76972 10.8945C5.86001 10.8945 5.9466 10.9304 6.01044 10.9942C6.07428 11.0581 6.11015 11.1447 6.11015 11.235C6.11015 11.3252 6.07428 11.4118 6.01044 11.4757C5.9466 11.5395 5.86001 11.5754 5.76972 11.5754C5.67943 11.5754 5.59284 11.5395 5.529 11.4757C5.46516 11.4118 5.42929 11.3252 5.42929 11.235ZM4.408 11.235C4.408 11.1447 4.44387 11.0581 4.50771 10.9942C4.57156 10.9304 4.65815 10.8945 4.74843 10.8945C4.83872 10.8945 4.92531 10.9304 4.98915 10.9942C5.053 11.0581 5.08886 11.1447 5.08886 11.235C5.08886 11.3252 5.053 11.4118 4.98915 11.4757C4.92531 11.5395 4.83872 11.5754 4.74843 11.5754C4.65815 11.5754 4.57156 11.5395 4.50771 11.4757C4.44387 11.4118 4.408 11.3252 4.408 11.235ZM3.38672 11.235C3.38672 11.1447 3.42258 11.0581 3.48643 10.9942C3.55027 10.9304 3.63686 10.8945 3.72715 10.8945C3.81743 10.8945 3.90402 10.9304 3.96787 10.9942C4.03171 11.0581 4.06758 11.1447 4.06758 11.235C4.06758 11.3252 4.03171 11.4118 3.96787 11.4757C3.90402 11.5395 3.81743 11.5754 3.72715 11.5754C3.63686 11.5754 3.55027 11.5395 3.48643 11.4757C3.42258 11.4118 3.38672 11.3252 3.38672 11.235Z" fill="#2C69E6"/>
<path d="M8.82944 6.469C8.7627 6.46848 8.69759 6.44835 8.6422 6.41112L7.62092 5.73027C7.57917 5.70788 7.54256 5.67702 7.51343 5.63968C7.48429 5.60233 7.46327 5.55931 7.45171 5.51338C7.44014 5.46744 7.43829 5.4196 7.44627 5.37291C7.45425 5.32622 7.47189 5.28171 7.49806 5.24223C7.52422 5.20274 7.55834 5.16915 7.59823 5.1436C7.63811 5.11806 7.68289 5.10111 7.7297 5.09386C7.77651 5.08661 7.82432 5.0892 7.87007 5.10148C7.91582 5.11375 7.9585 5.13544 7.99539 5.16516L8.82944 5.72005L9.66349 5.16516C9.70038 5.13544 9.74306 5.11375 9.78881 5.10148C9.83456 5.0892 9.88236 5.08661 9.92917 5.09386C9.97598 5.10111 10.0208 5.11806 10.0606 5.1436C10.1005 5.16915 10.1347 5.20274 10.1608 5.24223C10.187 5.28171 10.2046 5.32622 10.2126 5.37291C10.2206 5.4196 10.2187 5.46744 10.2072 5.51338C10.1956 5.55931 10.1746 5.60233 10.1454 5.63968C10.1163 5.67702 10.0797 5.70788 10.038 5.73027L9.01667 6.41112C8.96128 6.44835 8.89617 6.46848 8.82944 6.469Z" fill="#2C69E6"/>
<path d="M4.7435 6.469C4.67676 6.46848 4.61165 6.44835 4.55626 6.41112L3.53498 5.73027C3.49324 5.70788 3.45663 5.67702 3.42749 5.63968C3.39835 5.60233 3.37733 5.55931 3.36577 5.51338C3.35421 5.46744 3.35235 5.4196 3.36034 5.37291C3.36832 5.32622 3.38595 5.28171 3.41212 5.24223C3.43828 5.20274 3.4724 5.16915 3.51229 5.1436C3.55218 5.11806 3.59695 5.10111 3.64376 5.09386C3.69057 5.08661 3.73838 5.0892 3.78413 5.10148C3.82988 5.11375 3.87256 5.13544 3.90945 5.16516L4.7435 5.72005L5.24393 5.37963C5.31868 5.33953 5.4057 5.32878 5.48796 5.34949C5.57021 5.3702 5.64177 5.42087 5.68863 5.49157C5.73548 5.56228 5.75425 5.64793 5.74126 5.73175C5.72827 5.81558 5.68446 5.89153 5.6184 5.94474L4.93754 6.40091C4.88143 6.44307 4.81365 6.46685 4.7435 6.469Z" fill="#2C69E6"/>
<path d="M12.9148 6.46855C12.8481 6.46803 12.7829 6.4479 12.7276 6.41068L12.0467 5.9545C12.005 5.93211 11.9683 5.90126 11.9392 5.86391C11.9101 5.82656 11.8891 5.78355 11.8775 5.73761C11.8659 5.69168 11.8641 5.64384 11.8721 5.59715C11.88 5.55046 11.8977 5.50595 11.9238 5.46646C11.95 5.42698 11.9841 5.39339 12.024 5.36784C12.0639 5.34229 12.1087 5.32535 12.1555 5.31809C12.2023 5.31084 12.2501 5.31344 12.2958 5.32571C12.3416 5.33799 12.3843 5.35968 12.4212 5.38939L12.9216 5.72982L13.7556 5.17492C13.7925 5.14521 13.8352 5.12352 13.881 5.11124C13.9267 5.09897 13.9745 5.09637 14.0213 5.10362C14.0681 5.11088 14.1129 5.12782 14.1528 5.15337C14.1927 5.17892 14.2268 5.21251 14.253 5.25199C14.2791 5.29148 14.2968 5.33599 14.3048 5.38268C14.3127 5.42937 14.3109 5.47721 14.2993 5.52314C14.2878 5.56908 14.2667 5.61209 14.2376 5.64944C14.2085 5.68679 14.1719 5.71764 14.1301 5.74003L13.1088 6.42089C13.0504 6.45583 12.9828 6.47243 12.9148 6.46855Z" fill="#2C69E6"/>
<path d="M8.48887 8.17122C8.39858 8.17122 8.31199 8.13536 8.24815 8.07151C8.1843 8.00767 8.14844 7.92108 8.14844 7.83079V6.80951C8.14876 6.75622 8.16158 6.70374 8.18588 6.65632L8.52631 5.97546C8.57063 5.90181 8.64117 5.84765 8.72377 5.82385C8.80636 5.80006 8.89491 5.80839 8.97161 5.84717C9.04832 5.88596 9.10752 5.95233 9.13732 6.03295C9.16712 6.11358 9.16532 6.20249 9.13228 6.28184L8.82929 6.89121V7.83079C8.82929 7.92108 8.79343 8.00767 8.72959 8.07151C8.66574 8.13536 8.57915 8.17122 8.48887 8.17122Z" fill="#2C69E6"/>
<path d="M9.16957 8.17122C9.07928 8.17122 8.99269 8.13536 8.92885 8.07151C8.86501 8.00767 8.82914 7.92108 8.82914 7.83079V6.89121L8.52616 6.28184C8.49312 6.20249 8.49131 6.11358 8.52111 6.03295C8.55091 5.95233 8.61011 5.88596 8.68682 5.84717C8.76353 5.80839 8.85207 5.80006 8.93467 5.82385C9.01727 5.84765 9.0878 5.90181 9.13212 5.97546L9.47255 6.65632C9.49685 6.70374 9.50968 6.75622 9.51 6.80951V7.83079C9.51 7.92108 9.47413 8.00767 9.41029 8.07151C9.34645 8.13536 9.25986 8.17122 9.16957 8.17122Z" fill="#2C69E6"/>
</svg>
