<svg width="56" height="56" viewBox="0 0 56 56" fill="none" xmlns="http://www.w3.org/2000/svg">
<rect width="56" height="56" rx="28" fill="#2E357D" fill-opacity="0.1"/>
<path d="M41.7752 33.1684C41.0851 32.7407 40.3291 32.4297 39.5378 32.2481V31.7342C40.5488 31.3762 41.4242 30.714 42.0439 29.8387C42.6636 28.9634 42.9973 27.9177 42.9991 26.8452C42.9942 21.9529 36.7845 19.8158 33.769 23.589V23.081C39.191 21.0753 37.8877 13.1109 32.0383 13C26.188 13.1113 24.8865 21.0764 30.3077 23.081V23.5949C29.669 23.7437 29.0533 23.9781 28.4773 24.2918C28.0568 23.5596 27.4646 22.9405 26.7518 22.4879C26.0389 22.0352 25.2268 21.7626 24.3852 21.6935C23.5436 21.6243 22.6978 21.7607 21.9207 22.0909C21.1435 22.4211 20.4582 22.9353 19.9238 23.5891V23.081C25.3458 21.0753 24.0425 13.1109 18.1931 13C12.3428 13.1113 11.0413 21.0764 16.4625 23.081V23.5949C14.7265 24.0127 13.1945 25.0319 12.1385 26.4717C11.0825 27.9116 10.5706 29.679 10.6938 31.4603C10.6937 31.5498 10.7145 31.6381 10.7545 31.7182C10.7946 31.7983 10.8527 31.868 10.9244 31.9217C13.1166 33.5849 15.8187 34.4346 18.5684 34.3253C17.8353 35.0914 17.2695 36.0016 16.907 36.998C16.5444 37.9945 16.3931 39.0554 16.4625 40.1135C16.4625 40.203 16.4833 40.2914 16.5234 40.3715C16.5634 40.4515 16.6215 40.5212 16.6932 40.5749C18.7314 42.1058 21.2009 42.9539 23.7496 42.9982C26.2983 43.0425 28.7959 42.2807 30.886 40.8215C32.9818 42.2644 35.4761 43.0164 38.0201 42.9722C40.5642 42.9281 43.0309 42.0901 45.0754 40.5753C45.1472 40.5217 45.2056 40.452 45.2457 40.3718C45.2859 40.2916 45.3067 40.2032 45.3067 40.1135C45.4016 38.7447 45.1232 37.3757 44.5013 36.1526C43.8794 34.9295 42.9372 33.8981 41.7752 33.1684ZM40.7331 33.9069C39.3742 36.6938 36.2374 36.6898 34.8812 33.9069C35.3207 33.6789 35.7857 33.504 36.2664 33.3858C36.4107 33.6705 36.631 33.9097 36.903 34.0768C37.175 34.2439 37.488 34.3324 37.8072 34.3323C38.1264 34.3323 38.4394 34.2439 38.7114 34.0768C38.9834 33.9097 39.2038 33.6705 39.348 33.3857C39.8288 33.5039 40.2937 33.6789 40.7331 33.9069ZM37.2303 32.614V32.0371H38.3841V32.614C38.3819 32.7656 38.3202 32.9103 38.2122 33.0167C38.1043 33.1231 37.9588 33.1828 37.8072 33.1828C37.6556 33.1828 37.5101 33.1231 37.4021 33.0167C37.2942 32.9103 37.2324 32.7656 37.2303 32.614ZM34.4656 24.581C34.8563 24.0044 35.3895 23.5388 36.0133 23.2292C36.6372 22.9197 37.3305 22.7768 38.0259 22.8144C38.7214 22.852 39.3952 23.0688 39.9821 23.4439C40.5689 23.8189 41.0487 24.3394 41.375 24.9547C41.7012 25.57 41.8627 26.2592 41.8439 26.9554C41.825 27.6515 41.6264 28.331 41.2673 28.9277C40.9082 29.5244 40.4008 30.0181 39.7945 30.3608C39.1882 30.7035 38.5036 30.8835 37.8072 30.8834C37.075 30.8804 36.3573 30.6789 35.7307 30.3001C35.1041 29.9214 34.592 29.3797 34.249 28.7329C33.906 28.086 33.7451 27.3581 33.7832 26.627C33.8213 25.8958 34.0572 25.1887 34.4656 24.581ZM28.0002 18.1919C28.0014 17.1213 28.4273 16.0949 29.1843 15.3379C29.9413 14.5809 30.9677 14.155 32.0383 14.1538C37.3881 14.3569 37.3867 22.0278 32.0383 22.2301C30.9677 22.2289 29.9413 21.803 29.1843 21.046C28.4273 20.2889 28.0014 19.2626 28.0002 18.1919ZM32.6152 23.3839V23.9608C32.6152 24.1138 32.5544 24.2605 32.4463 24.3687C32.3381 24.4769 32.1913 24.5377 32.0383 24.5377C31.8853 24.5377 31.7386 24.4769 31.6304 24.3687C31.5222 24.2605 31.4615 24.1138 31.4615 23.9608V23.3839H32.6152ZM30.4976 24.7326C30.7012 25.1387 31.0568 25.448 31.4871 25.5934C31.9174 25.7388 32.3877 25.7086 32.7959 25.5093C32.6371 26.0872 32.5834 26.6889 32.6375 27.2858C31.2176 27.7799 29.599 26.3754 29.1119 25.2573C29.551 25.0272 30.0162 24.851 30.4976 24.7326ZM29.1341 27.2361C30.0874 28.1372 31.5274 28.8485 32.8618 28.4222C33.1073 29.1841 33.525 29.8792 34.0825 30.4535C34.64 31.0279 35.3223 31.4662 36.0765 31.7342V32.2481C35.4189 32.4016 34.7855 32.6448 34.194 32.9707C33.4847 33.1166 32.7625 33.1904 32.0383 33.1909C29.9797 33.182 27.964 32.6019 26.2154 31.5154C27.0339 31.1199 27.7341 30.5165 28.2463 29.7656C28.7585 29.0147 29.0646 28.1424 29.1341 27.2361ZM23.962 34.3447C24.2825 34.3436 24.5964 34.2533 24.8686 34.084C25.1407 33.9146 25.3603 33.6728 25.5028 33.3857C25.9836 33.5039 26.4485 33.6789 26.888 33.9069C25.529 36.6938 22.3923 36.6898 21.0361 33.9069C21.4755 33.6789 21.9405 33.504 22.4212 33.3858C22.5637 33.6728 22.7833 33.9146 23.0555 34.084C23.3276 34.2533 23.6415 34.3436 23.962 34.3447ZM23.3851 32.614V32.0371H24.5389V32.614C24.5366 32.7655 24.4749 32.9101 24.3669 33.0164C24.259 33.1228 24.1135 33.1824 23.962 33.1824C23.8104 33.1824 23.665 33.1228 23.5571 33.0164C23.4491 32.9101 23.3873 32.7655 23.3851 32.614ZM20.6204 24.581C21.0111 24.0044 21.5443 23.5388 22.1682 23.2292C22.792 22.9197 23.4853 22.7768 24.1808 22.8144C24.8762 22.852 25.55 23.0688 26.1369 23.4439C26.7237 23.8189 27.2036 24.3394 27.5298 24.9547C27.856 25.57 28.0175 26.2592 27.9987 26.9554C27.9798 27.6515 27.7812 28.331 27.4221 28.9277C27.063 29.5244 26.5556 30.0181 25.9493 30.3608C25.343 30.7035 24.6584 30.8835 23.962 30.8834C23.2298 30.8804 22.5121 30.6789 21.8855 30.3001C21.2589 29.9214 20.7468 29.3797 20.4038 28.7329C20.0609 28.086 19.8999 27.3581 19.938 26.627C19.9761 25.8958 20.212 25.1887 20.6204 24.581ZM14.155 18.1919C14.1562 17.1213 14.5821 16.0949 15.3391 15.3379C16.0961 14.5809 17.1225 14.155 18.1932 14.1538C23.5429 14.3569 23.5415 22.0278 18.1931 22.2301C17.1225 22.2289 16.0961 21.803 15.3391 21.046C14.5821 20.2889 14.1562 19.2626 14.155 18.1919ZM18.77 23.3839V23.9608C18.77 24.1138 18.7093 24.2605 18.6011 24.3687C18.4929 24.4769 18.3462 24.5377 18.1932 24.5377C18.0402 24.5377 17.8934 24.4769 17.7852 24.3687C17.677 24.2605 17.6163 24.1138 17.6163 23.9608V23.3839H18.77ZM16.6524 24.7326C16.856 25.1387 17.2116 25.448 17.6419 25.5934C18.0722 25.7388 18.5425 25.7086 18.9507 25.5093C18.7919 26.0872 18.7382 26.6889 18.7924 27.2858C17.3724 27.7799 15.7538 26.3754 15.2667 25.2573C15.7058 25.0272 16.171 24.851 16.6524 24.7326ZM18.1932 33.1909C15.9202 33.1848 13.7043 32.4782 11.8474 31.1673C11.8042 30.1558 12.0038 29.1486 12.4295 28.2301C12.8552 27.3115 13.4946 26.5081 14.2943 25.8873C15.1745 27.5713 17.0866 28.9547 19.0166 28.4222C19.2621 29.1841 19.6798 29.8792 20.2373 30.4536C20.7948 31.0279 21.4771 31.4662 22.2313 31.7342V32.2481C21.5737 32.4016 20.9403 32.6448 20.3488 32.9707C19.6395 33.1166 18.9173 33.1904 18.1932 33.1909ZM17.6163 39.8206C17.5733 38.8089 17.7727 37.8016 18.1978 36.8826C18.6228 35.9636 19.2613 35.1594 20.0601 34.5371C21.9029 38.0366 26.0246 38.0311 27.8638 34.5372C28.6624 35.1594 29.3009 35.9633 29.726 36.8821C30.1511 37.8009 30.3505 38.808 30.3077 39.8194C28.4522 41.1324 26.2352 41.8376 23.9622 41.8378C21.6891 41.838 19.472 41.1332 17.6163 39.8206ZM30.8846 36.6515C30.4487 35.6083 29.7808 34.6781 28.9315 33.9317C30.0641 34.2459 31.2394 34.3787 32.4135 34.3253C31.7619 34.9975 31.2431 35.7867 30.8846 36.6515ZM31.4615 39.8206C31.4185 38.8089 31.6179 37.8016 32.0429 36.8826C32.468 35.9636 33.1065 35.1594 33.9053 34.5371C35.7481 38.0366 39.8697 38.0311 41.709 34.5372C42.5076 35.1594 43.1461 35.9633 43.5712 36.8821C43.9963 37.8009 44.1957 38.808 44.1529 39.8194C42.2974 41.1324 40.0804 41.8376 37.8074 41.8378C35.5343 41.838 33.3172 41.1332 31.4615 39.8206Z" fill="#2E357D"/>
</svg>
