<svg width="19" height="16" viewBox="0 0 19 16" fill="none" xmlns="http://www.w3.org/2000/svg">
<path d="M17.1059 10.7565C16.7378 10.5284 16.3347 10.3625 15.9126 10.2656V9.99159C16.4518 9.80062 16.9187 9.44748 17.2492 8.98063C17.5797 8.51379 17.7577 7.95611 17.7586 7.38411C17.756 4.77486 14.4442 3.6351 12.8359 5.64748V5.37653C15.7276 4.30685 15.0325 0.0591344 11.9129 0C8.79273 0.0593805 8.09858 4.30739 10.9899 5.37652V5.65064C10.6492 5.72998 10.3209 5.855 10.0137 6.0223C9.7894 5.63177 9.47358 5.3016 9.09339 5.06019C8.7132 4.81879 8.28005 4.67339 7.83121 4.63652C7.38237 4.59964 6.93129 4.67239 6.5168 4.8485C6.10231 5.02461 5.73683 5.29881 5.45181 5.6475V5.37653C8.34353 4.30685 7.64844 0.0591344 4.52876 0C1.40863 0.0593805 0.714476 4.30739 3.60578 5.37652V5.65064C2.6799 5.87344 1.86287 6.41701 1.29965 7.18493C0.736435 7.95284 0.46345 8.89544 0.529129 9.84549C0.529091 9.89324 0.540186 9.94034 0.561535 9.98306C0.582883 10.0258 0.613896 10.0629 0.652111 10.0915C1.8213 10.9786 3.26244 11.4318 4.7289 11.3735C4.33792 11.7821 4.03617 12.2675 3.84282 12.7989C3.64948 13.3304 3.56876 13.8962 3.6058 14.4605C3.60578 14.5083 3.61688 14.5554 3.63824 14.5981C3.65959 14.6408 3.6906 14.678 3.72882 14.7066C4.81584 15.5231 6.13295 15.9754 7.49225 15.999C8.85154 16.0226 10.1836 15.6164 11.2983 14.8382C12.4161 15.6077 13.7463 16.0087 15.1032 15.9852C16.46 15.9616 17.7756 15.5147 18.866 14.7068C18.9043 14.6782 18.9354 14.6411 18.9568 14.5983C18.9782 14.5555 18.9894 14.5084 18.9893 14.4605C19.04 13.7305 18.8915 13.0004 18.5598 12.3481C18.2281 11.6957 17.7256 11.1457 17.1059 10.7565ZM16.5501 11.1503C15.8253 12.6367 14.1524 12.6346 13.4291 11.1503C13.6635 11.0287 13.9115 10.9354 14.1679 10.8724C14.2448 11.0243 14.3623 11.1518 14.5074 11.241C14.6525 11.3301 14.8194 11.3773 14.9896 11.3773C15.1599 11.3773 15.3268 11.3301 15.4719 11.2409C15.6169 11.1518 15.7344 11.0243 15.8114 10.8724C16.0678 10.9354 16.3158 11.0287 16.5501 11.1503ZM14.6819 10.4608V10.1531H15.2973V10.4608C15.2961 10.5417 15.2632 10.6188 15.2056 10.6756C15.1481 10.7323 15.0705 10.7642 14.9896 10.7642C14.9088 10.7642 14.8312 10.7323 14.7736 10.6756C14.716 10.6188 14.6831 10.5417 14.6819 10.4608ZM13.2074 6.17652C13.4158 5.86904 13.7002 5.62069 14.0329 5.45559C14.3656 5.2905 14.7354 5.21428 15.1063 5.23434C15.4772 5.2544 15.8366 5.37005 16.1495 5.57007C16.4625 5.77008 16.7184 6.04766 16.8924 6.37582C17.0664 6.70398 17.1526 7.07156 17.1425 7.44286C17.1324 7.81416 17.0265 8.17653 16.835 8.49478C16.6435 8.81303 16.3729 9.07633 16.0495 9.25909C15.7262 9.44186 15.361 9.53787 14.9896 9.5378C14.5991 9.53623 14.2164 9.42873 13.8822 9.22674C13.548 9.02475 13.2748 8.73586 13.0919 8.39086C12.909 8.04586 12.8231 7.65768 12.8435 7.26771C12.8638 6.87775 12.9896 6.50062 13.2074 6.17652ZM9.7592 2.76904C9.75987 2.19805 9.98699 1.65063 10.3907 1.24688C10.7945 0.843129 11.3419 0.616008 11.9129 0.615342C14.7661 0.723679 14.7653 4.81484 11.9129 4.92274C11.3419 4.92207 10.7945 4.69494 10.3907 4.29119C9.98698 3.88744 9.75986 3.34003 9.7592 2.76904ZM12.2206 5.53808V5.84575C12.2206 5.92735 12.1882 6.00561 12.1305 6.0633C12.0728 6.121 11.9945 6.15342 11.9129 6.15342C11.8313 6.15342 11.753 6.121 11.6953 6.0633C11.6376 6.00561 11.6052 5.92735 11.6052 5.84575V5.53808H12.2206ZM11.0912 6.25741C11.1998 6.47397 11.3894 6.63894 11.6189 6.71649C11.8484 6.79405 12.0992 6.77792 12.3169 6.67161C12.2322 6.97984 12.2036 7.30077 12.2325 7.61911C11.4752 7.8826 10.6119 7.13355 10.3521 6.53723C10.5863 6.4145 10.8344 6.32054 11.0912 6.25741ZM10.364 7.5926C10.8724 8.07318 11.6404 8.45254 12.3521 8.22517C12.483 8.63151 12.7058 9.00222 13.0031 9.30856C13.3004 9.61489 13.6643 9.84862 14.0666 9.99159V10.2657C13.7159 10.3475 13.378 10.4772 13.0626 10.651C12.6843 10.7289 12.2991 10.7682 11.9129 10.7685C10.815 10.7637 9.7399 10.4544 8.80734 9.87486C9.24384 9.66393 9.61733 9.34214 9.89049 8.94164C10.1636 8.54115 10.3269 8.07597 10.364 7.5926ZM7.6055 11.3838C7.77645 11.3833 7.94387 11.3351 8.08901 11.2448C8.23415 11.1545 8.35128 11.0255 8.42729 10.8724C8.68368 10.9354 8.93167 11.0287 9.16603 11.1503C8.44125 12.6367 6.76832 12.6346 6.04502 11.1503C6.27938 11.0287 6.52738 10.9354 6.78377 10.8724C6.85978 11.0255 6.9769 11.1545 7.12203 11.2448C7.26716 11.3351 7.43456 11.3833 7.6055 11.3838ZM7.29783 10.4608V10.1531H7.91318V10.4608C7.91198 10.5416 7.87903 10.6187 7.82147 10.6754C7.7639 10.7322 7.68632 10.764 7.6055 10.764C7.52469 10.764 7.44711 10.7322 7.38954 10.6754C7.33197 10.6187 7.29903 10.5416 7.29783 10.4608ZM5.82334 6.17652C6.03171 5.86904 6.31607 5.62069 6.6488 5.45559C6.98152 5.2905 7.35129 5.21428 7.72218 5.23434C8.09307 5.2544 8.45247 5.37005 8.76545 5.57007C9.07843 5.77008 9.33434 6.04766 9.50833 6.37582C9.68233 6.70398 9.76847 7.07156 9.7584 7.44286C9.74834 7.81416 9.6424 8.17653 9.45088 8.49478C9.25936 8.81303 8.98878 9.07633 8.66542 9.25909C8.34206 9.44186 7.97693 9.53787 7.6055 9.5378C7.21501 9.53623 6.83226 9.42873 6.49806 9.22674C6.16387 9.02475 5.89075 8.73586 5.70783 8.39086C5.52491 8.04586 5.43904 7.65768 5.45938 7.26771C5.47972 6.87775 5.60551 6.50062 5.82334 6.17652ZM2.3751 2.76904C2.37577 2.19805 2.60289 1.65063 3.00664 1.24688C3.41039 0.843129 3.9578 0.616008 4.5288 0.615342C7.38202 0.723679 7.38125 4.81484 4.52878 4.92274C3.95779 4.92207 3.41038 4.69494 3.00663 4.29119C2.60288 3.88744 2.37576 3.34003 2.3751 2.76904ZM4.83647 5.53808V5.84575C4.83647 5.92735 4.80405 6.00561 4.74635 6.0633C4.68865 6.121 4.61039 6.15342 4.5288 6.15342C4.4472 6.15342 4.36894 6.121 4.31124 6.0633C4.25354 6.00561 4.22112 5.92735 4.22112 5.84575V5.53808H4.83647ZM3.70707 6.25741C3.81565 6.47397 4.00529 6.63894 4.23479 6.71649C4.46429 6.79405 4.71512 6.77792 4.9328 6.67161C4.84811 6.97984 4.81951 7.30077 4.84837 7.61911C4.09108 7.8826 3.22782 7.13355 2.96802 6.53723C3.20219 6.4145 3.45034 6.32054 3.70707 6.25741ZM4.5288 10.7685C3.31654 10.7652 2.13476 10.3884 1.14442 9.68923C1.12136 9.14976 1.2278 8.61261 1.45484 8.12269C1.68188 7.63278 2.02291 7.20434 2.44942 6.87321C2.91883 7.77134 3.93861 8.50916 4.96797 8.22519C5.09889 8.63152 5.32166 9.00223 5.619 9.30857C5.91633 9.6149 6.28024 9.84862 6.68249 9.99159V10.2657C6.33176 10.3475 5.99393 10.4772 5.67848 10.651C5.30019 10.7289 4.915 10.7682 4.5288 10.7685ZM4.22112 14.3043C4.19821 13.7647 4.30454 13.2275 4.53125 12.7374C4.75796 12.2472 5.0985 11.8183 5.5245 11.4864C6.50734 13.3528 8.70554 13.3499 9.68647 11.4865C10.1124 11.8183 10.4529 12.2471 10.6796 12.7371C10.9063 13.2271 11.0127 13.7642 10.9899 14.3037C10.0003 15.004 8.81789 15.3801 7.6056 15.3802C6.39331 15.3803 5.21083 15.0044 4.22112 14.3043ZM11.2976 12.6142C11.0651 12.0577 10.7089 11.5616 10.2559 11.1636C10.86 11.3311 11.4868 11.402 12.113 11.3735C11.7654 11.732 11.4888 12.1529 11.2976 12.6142ZM11.6052 14.3043C11.5823 13.7647 11.6886 13.2275 11.9154 12.7374C12.1421 12.2472 12.4826 11.8183 12.9086 11.4864C13.8914 13.3528 16.0896 13.3499 17.0706 11.4865C17.4965 11.8183 17.837 12.2471 18.0637 12.7371C18.2904 13.2271 18.3968 13.7642 18.374 14.3037C17.3844 15.004 16.202 15.3801 14.9897 15.3802C13.7774 15.3803 12.5949 15.0044 11.6052 14.3043Z" fill="#2E357D"/>
</svg>
