<svg width="56" height="56" viewBox="0 0 56 56" fill="none" xmlns="http://www.w3.org/2000/svg">
<rect width="56" height="56" rx="28" fill="#E7F7FF"/>
<path d="M38.6883 19.5426L26.574 30.5998L22.174 25.7998C21.7454 25.3426 21.0311 25.3141 20.5454 25.7141C20.0883 26.1426 20.0597 26.8569 20.4597 27.3426L25.6311 32.9998C25.8597 33.2569 26.174 33.3712 26.4883 33.3712C26.774 33.3712 27.0311 33.2855 27.2597 33.0855L40.2311 21.2283C40.6883 20.7998 40.7168 20.0855 40.3168 19.5998C39.8883 19.1426 39.174 19.1141 38.6883 19.5426Z" fill="#2C69E6"/>
<path d="M27.4023 40C34.0309 40 39.4023 34.6286 39.4023 28C39.4023 27.4286 39.3738 26.8857 39.2881 26.3429C39.2023 25.7143 38.6309 25.2857 38.0023 25.3714C37.3738 25.4571 36.9452 26.0286 37.0309 26.6571C37.0881 27.1143 37.1166 27.5714 37.1166 28C37.1166 33.3429 32.7452 37.7143 27.4023 37.7143C22.0595 37.7143 17.6881 33.3429 17.6881 28C17.6881 22.6571 22.0595 18.2857 27.4023 18.2857C29.6881 18.2857 31.9166 19.0857 33.6595 20.5714C34.1452 20.9714 34.8595 20.9143 35.2595 20.4286C35.6595 19.9429 35.6023 19.2286 35.1166 18.8286C32.9738 17 30.2309 16 27.4023 16C20.7738 16 15.4023 21.3714 15.4023 28C15.4023 34.6286 20.7738 40 27.4023 40Z" fill="#2C69E6"/>
</svg>
