<svg width="32" height="31" viewBox="0 0 32 31" fill="none" xmlns="http://www.w3.org/2000/svg">
<path d="M11.928 16.8795C9.68052 16.8795 7.84635 15.0582 7.84635 12.8236C7.84635 11.9066 8.18219 11.0282 8.7376 10.3307C8.1951 9.63323 7.84635 8.7549 7.84635 7.83781C7.84635 5.60323 9.69344 3.78198 11.928 3.78198L12.4834 3.82073C12.7883 3.07357 13.3084 2.43394 13.9777 1.98314C14.647 1.53234 15.4352 1.29075 16.2422 1.28906C17.9343 1.28906 19.3939 2.33531 20.0009 3.82073L20.5564 3.78198C22.7909 3.78198 24.638 5.60323 24.638 7.83781C24.638 8.7549 24.3022 9.63323 23.7468 10.3307C24.2893 11.0282 24.638 11.9066 24.638 12.8236C24.638 15.0582 22.7909 16.8795 20.5564 16.8795L20.0009 16.8407C19.6961 17.5879 19.176 18.2275 18.5067 18.6783C17.8374 19.1291 17.0491 19.3707 16.2422 19.3724C15.4352 19.3707 14.647 19.1291 13.9777 18.6783C13.3084 18.2275 12.7883 17.5879 12.4834 16.8407L11.928 16.8795ZM16.2422 16.7891C17.043 16.7891 17.6889 16.1432 17.7147 15.3682L17.5726 13.9603C17.1593 14.1153 16.7072 14.2057 16.2422 14.2057C15.7772 14.2057 15.338 14.1153 14.9505 13.9603L14.7697 15.3682C14.7955 16.1432 15.4414 16.7891 16.2422 16.7891ZM20.5564 14.2961C21.3701 14.2961 22.0547 13.6374 22.0547 12.8107C22.0547 12.2682 21.7059 11.7257 21.1893 11.4803L20.0526 10.9378C19.8976 11.8936 19.3939 12.7203 18.6834 13.3016L19.7297 14.0378C19.9622 14.2057 20.2464 14.2961 20.5564 14.2961ZM19.7168 6.62365L18.6576 7.34698C19.3809 7.92823 19.8847 8.7549 20.0397 9.6849L21.1764 9.16823C21.7059 8.9099 22.0547 8.39323 22.0547 7.83781C22.0547 7.02406 21.3701 6.36531 20.5564 6.36531C20.2593 6.36531 19.9751 6.45573 19.7168 6.62365ZM16.2422 3.8724C15.4414 3.8724 14.7955 4.51823 14.7697 5.29323L14.9505 6.70115C15.338 6.54615 15.7772 6.45573 16.2422 6.45573C16.7072 6.45573 17.1593 6.54615 17.5726 6.70115L17.7147 5.29323C17.6889 4.51823 17.043 3.8724 16.2422 3.8724ZM11.928 6.36531C11.1143 6.36531 10.4297 7.02406 10.4297 7.83781C10.4297 8.39323 10.7784 8.9099 11.2951 9.16823L12.4318 9.6849C12.5868 8.7549 13.0905 7.92823 13.8009 7.34698L12.7547 6.62365C12.5222 6.45573 12.238 6.36531 11.928 6.36531ZM11.2951 11.4932C10.7784 11.7516 10.4297 12.2682 10.4297 12.8107C10.4297 13.6245 11.1143 14.2832 11.928 14.2832C12.2251 14.2832 12.5093 14.2057 12.7676 14.0249L13.8139 13.3145C13.0905 12.7332 12.5868 11.9066 12.4318 10.9766L11.2951 11.4932ZM16.2422 28.4141C13.159 28.4141 10.2022 27.1893 8.02207 25.0092C5.84196 22.8291 4.61719 19.8722 4.61719 16.7891C7.70033 16.7891 10.6572 18.0138 12.8373 20.1939C15.0174 22.3741 16.2422 25.3309 16.2422 28.4141C16.2422 25.3309 17.467 22.3741 19.6471 20.1939C21.8272 18.0138 24.784 16.7891 27.8672 16.7891C27.8672 19.8722 26.6424 22.8291 24.4623 25.0092C22.2822 27.1893 19.3253 28.4141 16.2422 28.4141ZM19.3939 25.2624C20.6093 24.8066 21.7132 24.0959 22.6311 23.1779C23.549 22.26 24.2597 21.1562 24.7155 19.9407C22.2614 20.8449 20.3109 22.8082 19.3939 25.2624ZM7.76885 19.9407C8.22464 21.1562 8.93538 22.26 9.8533 23.1779C10.7712 24.0959 11.875 24.8066 13.0905 25.2624C12.1864 22.8082 10.223 20.8578 7.76885 19.9407Z" fill="url(#paint0_linear_2229_37461)"/>
<defs>
<linearGradient id="paint0_linear_2229_37461" x1="21.6231" y1="-0.464839" x2="5.86437" y2="26.1691" gradientUnits="userSpaceOnUse">
<stop stop-color="#BCDFFC"/>
<stop offset="1" stop-color="#0788F5"/>
</linearGradient>
</defs>
</svg>
