<svg width="56" height="56" viewBox="0 0 56 56" fill="none" xmlns="http://www.w3.org/2000/svg">
<rect width="56" height="56" rx="28" fill="#A4D4FB" fill-opacity="0.2"/>
<path d="M22.9822 29.6089C20.3722 29.6089 18.2422 27.4939 18.2422 24.8989C18.2422 23.8339 18.6322 22.8139 19.2772 22.0039C18.6472 21.1939 18.2422 20.1739 18.2422 19.1089C18.2422 16.5139 20.3872 14.3989 22.9822 14.3989L23.6272 14.4439C23.9812 13.5762 24.5852 12.8334 25.3625 12.3099C26.1397 11.7864 27.0551 11.5059 27.9922 11.5039C29.9572 11.5039 31.6522 12.7189 32.3572 14.4439L33.0022 14.3989C35.5972 14.3989 37.7422 16.5139 37.7422 19.1089C37.7422 20.1739 37.3522 21.1939 36.7072 22.0039C37.3372 22.8139 37.7422 23.8339 37.7422 24.8989C37.7422 27.4939 35.5972 29.6089 33.0022 29.6089L32.3572 29.5639C32.0032 30.4316 31.3991 31.1744 30.6219 31.6979C29.8447 32.2214 28.9293 32.5019 27.9922 32.5039C27.0551 32.5019 26.1397 32.2214 25.3625 31.6979C24.5852 31.1744 23.9812 30.4316 23.6272 29.5639L22.9822 29.6089ZM27.9922 29.5039C28.9222 29.5039 29.6722 28.7539 29.7022 27.8539L29.5372 26.2189C29.0572 26.3989 28.5322 26.5039 27.9922 26.5039C27.4522 26.5039 26.9422 26.3989 26.4922 26.2189L26.2822 27.8539C26.3122 28.7539 27.0622 29.5039 27.9922 29.5039ZM33.0022 26.6089C33.9472 26.6089 34.7422 25.8439 34.7422 24.8839C34.7422 24.2539 34.3372 23.6239 33.7372 23.3389L32.4172 22.7089C32.2372 23.8189 31.6522 24.7789 30.8272 25.4539L32.0422 26.3089C32.3122 26.5039 32.6422 26.6089 33.0022 26.6089ZM32.0272 17.6989L30.7972 18.5389C31.6372 19.2139 32.2222 20.1739 32.4022 21.2539L33.7222 20.6539C34.3372 20.3539 34.7422 19.7539 34.7422 19.1089C34.7422 18.1639 33.9472 17.3989 33.0022 17.3989C32.6572 17.3989 32.3272 17.5039 32.0272 17.6989ZM27.9922 14.5039C27.0622 14.5039 26.3122 15.2539 26.2822 16.1539L26.4922 17.7889C26.9422 17.6089 27.4522 17.5039 27.9922 17.5039C28.5322 17.5039 29.0572 17.6089 29.5372 17.7889L29.7022 16.1539C29.6722 15.2539 28.9222 14.5039 27.9922 14.5039ZM22.9822 17.3989C22.0372 17.3989 21.2422 18.1639 21.2422 19.1089C21.2422 19.7539 21.6472 20.3539 22.2472 20.6539L23.5672 21.2539C23.7472 20.1739 24.3322 19.2139 25.1572 18.5389L23.9422 17.6989C23.6722 17.5039 23.3422 17.3989 22.9822 17.3989ZM22.2472 23.3539C21.6472 23.6539 21.2422 24.2539 21.2422 24.8839C21.2422 25.8289 22.0372 26.5939 22.9822 26.5939C23.3272 26.5939 23.6572 26.5039 23.9572 26.2939L25.1722 25.4689C24.3322 24.7939 23.7472 23.8339 23.5672 22.7539L22.2472 23.3539ZM27.9922 43.0039C24.4118 43.0039 20.978 41.5816 18.4462 39.0498C15.9145 36.5181 14.4922 33.0843 14.4922 29.5039C18.0726 29.5039 21.5064 30.9262 24.0381 33.458C26.5699 35.9897 27.9922 39.4235 27.9922 43.0039C27.9922 39.4235 29.4145 35.9897 31.9462 33.458C34.478 30.9262 37.9118 29.5039 41.4922 29.5039C41.4922 33.0843 40.0699 36.5181 37.5381 39.0498C35.0064 41.5816 31.5726 43.0039 27.9922 43.0039ZM31.6522 39.3439C33.0637 38.8146 34.3456 37.9892 35.4115 36.9233C36.4775 35.8573 37.3029 34.5754 37.8322 33.1639C34.9822 34.2139 32.7172 36.4939 31.6522 39.3439ZM18.1522 33.1639C18.6815 34.5754 19.5069 35.8573 20.5728 36.9233C21.6388 37.9892 22.9207 38.8146 24.3322 39.3439C23.2822 36.4939 21.0022 34.2289 18.1522 33.1639Z" fill="url(#paint0_linear_2229_36431)"/>
<defs>
<linearGradient id="paint0_linear_2229_36431" x1="34.241" y1="9.46712" x2="15.9405" y2="40.3969" gradientUnits="userSpaceOnUse">
<stop stop-color="#BCDFFC"/>
<stop offset="1" stop-color="#0788F5"/>
</linearGradient>
</defs>
</svg>
