<svg width="16" height="17" viewBox="0 0 16 17" fill="none" xmlns="http://www.w3.org/2000/svg">
<path d="M11.1714 0.320312H4.82859C2.17034 0.320312 0 2.47384 0 5.14892V11.4917C0 14.15 2.15352 16.3203 4.82859 16.3203H11.1714C13.8297 16.3203 16 14.1668 16 11.4917V5.14892C16 2.47384 13.8465 0.320312 11.1714 0.320312ZM14.6036 11.4749C14.6036 13.3592 13.0726 14.9071 11.1714 14.9071H4.82859C3.33122 14.9071 2.05258 13.9481 1.59832 12.6021L4.50894 9.84292L6.8307 12.0637L11.5247 6.62946L14.5867 9.94387V11.4749H14.6036ZM14.6036 7.90811L11.5079 4.56006L6.74658 10.0616L4.52576 7.92494L1.41324 10.8692V5.14892C1.41324 3.26458 2.94427 1.71674 4.84543 1.71674H11.1882C13.0726 1.71674 14.6204 3.24776 14.6204 5.14892V7.90811H14.6036Z" fill="#5948A2"/>
<path d="M4.55388 6.30892C5.33439 6.30892 5.96713 5.67619 5.96713 4.89568C5.96713 4.11516 5.33439 3.48242 4.55388 3.48242C3.77336 3.48242 3.14062 4.11516 3.14062 4.89568C3.14062 5.67619 3.77336 6.30892 4.55388 6.30892Z" fill="#5948A2"/>
</svg>
