<svg width="22" height="22" viewBox="0 0 22 22" fill="none" xmlns="http://www.w3.org/2000/svg">
<path d="M5.00586 19.087H7.61615C7.95649 19.087 8.29474 19.1275 8.62467 19.2085L11.3828 19.8788C11.9812 20.0246 12.6046 20.0387 13.2093 19.9213L16.2588 19.328C17.0644 19.1711 17.8054 18.7853 18.3862 18.2204L20.5437 16.1216C21.1599 15.5233 21.1599 14.5523 20.5437 13.953C19.989 13.4133 19.1106 13.3526 18.483 13.8102L15.9685 15.6447C15.6083 15.908 15.1702 16.0497 14.7195 16.0497H12.2914L13.8369 16.0497C14.7081 16.0497 15.4137 15.3632 15.4137 14.5158V14.209C15.4137 13.5054 14.9214 12.8919 14.2199 12.7218L11.8345 12.1416C11.4462 12.0475 11.0487 11.9999 10.649 11.9999C9.68419 11.9999 7.93775 12.7987 7.93775 12.7987L5.00586 14.0248M1.00586 13.5999L1.00586 19.3999C1.00586 19.9599 1.00586 20.24 1.11485 20.4539C1.21073 20.642 1.36371 20.795 1.55187 20.8909C1.76578 20.9999 2.04581 20.9999 2.60586 20.9999H3.40586C3.96591 20.9999 4.24594 20.9999 4.45985 20.8909C4.64801 20.795 4.80099 20.642 4.89687 20.4539C5.00586 20.24 5.00586 19.9599 5.00586 19.3999V13.5999C5.00586 13.0398 5.00586 12.7598 4.89687 12.5459C4.80099 12.3577 4.64801 12.2048 4.45985 12.1089C4.24594 11.9999 3.96591 11.9999 3.40586 11.9999H2.60586C2.04581 11.9999 1.76578 11.9999 1.55187 12.1089C1.36371 12.2048 1.21073 12.3577 1.11485 12.5459C1.00586 12.7598 1.00586 13.0398 1.00586 13.5999ZM16.1972 2.59215C15.6004 1.34329 14.2244 0.68168 12.8863 1.32027C11.5481 1.95886 10.9781 3.47328 11.5383 4.80272C11.8846 5.62435 12.8766 7.2199 13.5839 8.31893C13.8453 8.725 13.976 8.92804 14.1669 9.04682C14.3306 9.14871 14.5355 9.20362 14.7282 9.19725C14.9529 9.18982 15.1676 9.07932 15.597 8.85832C16.7591 8.26021 18.416 7.37445 19.1267 6.83602C20.2766 5.96481 20.5614 4.36347 19.7005 3.14614C18.8396 1.9288 17.3385 1.80902 16.1972 2.59215Z" stroke="white" stroke-width="2" stroke-linecap="round" stroke-linejoin="round"/>
</svg>
