<svg width="16" height="17" viewBox="0 0 16 17" fill="none" xmlns="http://www.w3.org/2000/svg">
<path d="M11.5845 0.333984H4.41533C1.98072 0.333984 0 2.3148 0 4.74941V11.9186C0 14.3533 1.98072 16.334 4.41533 16.334H11.5845C14.0193 16.334 16 14.3532 16 11.9186V4.74941C16.0001 2.3148 14.0193 0.333984 11.5845 0.333984ZM14.5805 11.9186C14.5805 13.5705 13.2365 14.9144 11.5846 14.9144H4.41533C2.76348 14.9145 1.4196 13.5705 1.4196 11.9186V4.74941C1.4196 3.09756 2.76348 1.75358 4.41533 1.75358H11.5845C13.2364 1.75358 14.5804 3.09756 14.5804 4.74941V11.9186H14.5805Z" fill="url(#paint0_linear_2229_39277)"/>
<path d="M8.0017 4.21094C5.72836 4.21094 3.87891 6.06039 3.87891 8.33373C3.87891 10.607 5.72836 12.4563 8.0017 12.4563C10.275 12.4563 12.1245 10.607 12.1245 8.33373C12.1245 6.06039 10.275 4.21094 8.0017 4.21094ZM8.0017 11.0366C6.51122 11.0366 5.2985 9.82412 5.2985 8.33364C5.2985 6.84306 6.51112 5.63044 8.0017 5.63044C9.49228 5.63044 10.7049 6.84306 10.7049 8.33364C10.7049 9.82412 9.49218 11.0366 8.0017 11.0366Z" fill="url(#paint1_linear_2229_39277)"/>
<path d="M12.2989 3.00781C12.0253 3.00781 11.7567 3.11854 11.5635 3.31255C11.3694 3.50562 11.2578 3.7744 11.2578 4.04885C11.2578 4.32245 11.3695 4.59114 11.5635 4.78515C11.7566 4.97821 12.0253 5.08989 12.2989 5.08989C12.5733 5.08989 12.8411 4.97821 13.0351 4.78515C13.2292 4.59114 13.3399 4.32236 13.3399 4.04885C13.3399 3.7744 13.2292 3.50562 13.0351 3.31255C12.8421 3.11854 12.5733 3.00781 12.2989 3.00781Z" fill="url(#paint2_linear_2229_39277)"/>
<defs>
<linearGradient id="paint0_linear_2229_39277" x1="8" y1="0.333984" x2="8" y2="16.334" gradientUnits="userSpaceOnUse">
<stop stop-color="#384A92"/>
<stop offset="0.25" stop-color="#A834B3"/>
<stop offset="0.505" stop-color="#F76A32"/>
<stop offset="1" stop-color="#FED779"/>
</linearGradient>
<linearGradient id="paint1_linear_2229_39277" x1="8.0017" y1="4.21094" x2="8.0017" y2="12.4563" gradientUnits="userSpaceOnUse">
<stop stop-color="#384A92"/>
<stop offset="0.25" stop-color="#A834B3"/>
<stop offset="0.505" stop-color="#F76A32"/>
<stop offset="1" stop-color="#FED779"/>
</linearGradient>
<linearGradient id="paint2_linear_2229_39277" x1="12.2989" y1="3.00781" x2="12.2989" y2="5.08989" gradientUnits="userSpaceOnUse">
<stop stop-color="#384A92"/>
<stop offset="0.25" stop-color="#A834B3"/>
<stop offset="0.505" stop-color="#F76A32"/>
<stop offset="1" stop-color="#FED779"/>
</linearGradient>
</defs>
</svg>
