<svg width="16" height="17" viewBox="0 0 16 17" fill="none" xmlns="http://www.w3.org/2000/svg">
<path d="M13.6328 13.9666H11.2621V10.254C11.2621 9.36867 11.2462 8.22901 10.029 8.22901C8.7943 8.22901 8.60539 9.19359 8.60539 10.1895V13.9663H6.23469V6.33171H8.51056V7.37506H8.54242C8.77018 6.98564 9.0993 6.66528 9.49473 6.4481C9.89016 6.23093 10.3371 6.12507 10.7879 6.1418C13.1907 6.1418 13.6337 7.72227 13.6337 9.77836L13.6328 13.9666ZM3.55976 5.28811C3.28766 5.28815 3.02165 5.20752 2.79539 5.05639C2.56912 4.90526 2.39275 4.69043 2.28858 4.43906C2.18441 4.1877 2.15711 3.91109 2.21015 3.64421C2.26318 3.37733 2.39416 3.13217 2.58653 2.93973C2.7789 2.7473 3.02401 2.61623 3.29087 2.5631C3.55773 2.50996 3.83435 2.53716 4.08576 2.64124C4.33716 2.74532 4.55205 2.92162 4.70326 3.14783C4.85447 3.37404 4.9352 3.64002 4.93525 3.91211C4.93528 4.09278 4.89973 4.27168 4.83063 4.43861C4.76152 4.60553 4.66021 4.75721 4.53248 4.88498C4.40475 5.01276 4.25311 5.11412 4.08621 5.18329C3.91931 5.25246 3.74042 5.28807 3.55976 5.28811ZM4.7451 13.9666H2.37193V6.33171H4.7451V13.9666ZM14.8146 0.335074H1.18066C0.871206 0.331582 0.573023 0.451089 0.351638 0.667334C0.130253 0.883579 0.0037767 1.17887 0 1.48832V15.1789C0.00364744 15.4885 0.130045 15.784 0.351423 16.0004C0.5728 16.2169 0.871053 16.3366 1.18066 16.3333H14.8146C15.1249 16.3372 15.424 16.2178 15.6462 16.0014C15.8685 15.7849 15.9957 15.4891 16 15.1789V1.48733C15.9956 1.17727 15.8682 0.881642 15.646 0.665402C15.4237 0.449163 15.1247 0.329997 14.8146 0.334086" fill="#0A66C2"/>
</svg>
