<svg width="18" height="18" viewBox="0 0 18 18" fill="none" xmlns="http://www.w3.org/2000/svg">
<path d="M8.44553 17.1782C7.83085 17.1782 7.33224 16.6796 7.33224 16.0649C7.33224 15.4507 7.83085 14.9516 8.44553 14.9516H15.9431C16.5578 14.9516 17.0564 15.4507 17.0564 16.0649C17.0564 16.6796 16.5578 17.1782 15.9431 17.1782H8.44553ZM8.44553 10.1129C7.83085 10.1129 7.33224 9.61425 7.33224 8.99956C7.33224 8.38531 7.83085 7.88627 8.44553 7.88627H15.9431C16.5578 7.88627 17.0564 8.38531 17.0564 8.99956C17.0564 9.61425 16.5578 10.1129 15.9431 10.1129H8.44553ZM8.44553 3.04793C7.83085 3.04793 7.33224 2.54932 7.33224 1.93463C7.33224 1.32039 7.83085 0.821339 8.44553 0.821339H15.9431C16.5578 0.821339 17.0564 1.32039 17.0564 1.93463C17.0564 2.54932 16.5578 3.04793 15.9431 3.04793H8.44553ZM2.87995 14.1303C3.94839 14.1303 4.81502 14.9965 4.81502 16.0649C4.81502 17.1338 3.94839 18 2.87995 18C1.8115 18 0.945312 17.1338 0.945312 16.0649C0.945312 14.9965 1.8115 14.1303 2.87995 14.1303ZM2.87995 7.06493C3.94839 7.06493 4.81502 7.93112 4.81502 8.99956C4.81502 10.0684 3.94839 10.9346 2.87995 10.9346C1.8115 10.9346 0.945312 10.0684 0.945312 8.99956C0.945312 7.93112 1.8115 7.06493 2.87995 7.06493ZM2.87995 0C3.94839 0 4.81502 0.866188 4.81502 1.93463C4.81502 3.00352 3.94839 3.86927 2.87995 3.86927C1.8115 3.86927 0.945312 3.00352 0.945312 1.93463C0.945312 0.866188 1.8115 0 2.87995 0Z" fill="white"/>
</svg>
