<svg width="31" height="31" viewBox="0 0 31 31" fill="none" xmlns="http://www.w3.org/2000/svg">
<path d="M17.7474 3.40784L27.4711 9.72823C27.8147 9.95157 27.9865 10.0632 28.111 10.2122C28.2211 10.344 28.3039 10.4965 28.3544 10.6608C28.4115 10.8463 28.4115 11.0512 28.4115 11.461V20.9311C28.4115 23.1013 28.4115 24.1864 27.9891 25.0153C27.6176 25.7445 27.0248 26.3373 26.2957 26.7088C25.4668 27.1311 24.3817 27.1311 22.2115 27.1311H8.77813C6.60792 27.1311 5.52282 27.1311 4.69391 26.7088C3.96478 26.3373 3.37198 25.7445 3.00047 25.0153C2.57812 24.1864 2.57812 23.1013 2.57812 20.9311V11.461C2.57812 11.0512 2.57812 10.8463 2.63518 10.6608C2.68568 10.4965 2.76845 10.344 2.87863 10.2122C3.0031 10.0632 3.17489 9.95157 3.51848 9.72823L13.2422 3.40784M17.7474 3.40784C16.9321 2.87785 16.5244 2.61286 16.0851 2.50976C15.6968 2.41862 15.2927 2.41862 14.9045 2.50976C14.4652 2.61286 14.0575 2.87785 13.2422 3.40784M17.7474 3.40784L25.7456 8.60668C26.6341 9.18419 27.0783 9.47294 27.2322 9.83912C27.3667 10.1591 27.3667 10.5198 27.2322 10.8398C27.0783 11.206 26.6341 11.4947 25.7456 12.0723L17.7474 17.2711C16.9321 17.8011 16.5244 18.0661 16.0851 18.1692C15.6968 18.2603 15.2927 18.2603 14.9045 18.1692C14.4652 18.0661 14.0575 17.8011 13.2422 17.2711L5.24395 12.0723C4.35548 11.4947 3.91124 11.206 3.75738 10.8398C3.62293 10.5198 3.62293 10.1591 3.75738 9.83912C3.91124 9.47294 4.35548 9.18419 5.24395 8.60668L13.2422 3.40784M27.7656 24.5478L19.1853 16.7978M11.8043 16.7978L3.22396 24.5478" stroke="url(#paint0_linear_2229_37550)" stroke-width="3" stroke-linecap="round" stroke-linejoin="round"/>
<defs>
<linearGradient id="paint0_linear_2229_37550" x1="24.5521" y1="2.44141" x2="18.4042" y2="27.8355" gradientUnits="userSpaceOnUse">
<stop stop-color="#53A68B"/>
<stop offset="1" stop-color="#56DAAF"/>
</linearGradient>
</defs>
</svg>
