<svg width="57" height="56" viewBox="0 0 57 56" fill="none" xmlns="http://www.w3.org/2000/svg">
<rect x="0.5" width="56" height="56" rx="28" fill="#56DAAF" fill-opacity="0.2"/>
<path d="M31.1238 13.9543L42.4158 21.2942C42.8148 21.5535 43.0143 21.6832 43.1588 21.8562C43.2868 22.0093 43.3829 22.1864 43.4416 22.3771C43.5078 22.5926 43.5078 22.8305 43.5078 23.3064V34.304C43.5078 36.8242 43.5078 38.0843 43.0173 39.0469C42.5859 39.8937 41.8975 40.5821 41.0508 41.0135C40.0882 41.504 38.828 41.504 36.3078 41.504H20.7078C18.1876 41.504 16.9275 41.504 15.9649 41.0135C15.1181 40.5821 14.4297 39.8937 13.9983 39.0469C13.5078 38.0843 13.5078 36.8242 13.5078 34.304V23.3064C13.5078 22.8305 13.5078 22.5926 13.5741 22.3771C13.6327 22.1864 13.7288 22.0093 13.8568 21.8562C14.0013 21.6832 14.2008 21.5535 14.5998 21.2942L25.8919 13.9543M31.1238 13.9543C30.1769 13.3389 29.7035 13.0311 29.1934 12.9114C28.7425 12.8056 28.2732 12.8056 27.8223 12.9114C27.3122 13.0311 26.8387 13.3389 25.8919 13.9543M31.1238 13.9543L40.412 19.9917C41.4438 20.6624 41.9597 20.9977 42.1384 21.4229C42.2945 21.7946 42.2945 22.2134 42.1384 22.585C41.9597 23.0103 41.4438 23.3456 40.412 24.0162L31.1238 30.0536C30.1769 30.6691 29.7035 30.9768 29.1934 31.0965C28.7425 31.2024 28.2732 31.2024 27.8223 31.0965C27.3122 30.9768 26.8387 30.6691 25.8919 30.0536L16.6036 24.0162C15.5718 23.3456 15.0559 23.0103 14.8773 22.585C14.7211 22.2134 14.7211 21.7946 14.8773 21.4229C15.0559 20.9977 15.5718 20.6624 16.6036 19.9917L25.8919 13.9543M42.7578 38.504L32.7936 29.504M24.222 29.504L14.2578 38.504" stroke="url(#paint0_linear_2229_36422)" stroke-width="3" stroke-linecap="round" stroke-linejoin="round"/>
<defs>
<linearGradient id="paint0_linear_2229_36422" x1="39.026" y1="12.832" x2="31.8865" y2="42.322" gradientUnits="userSpaceOnUse">
<stop stop-color="#53A68B"/>
<stop offset="1" stop-color="#56DAAF"/>
</linearGradient>
</defs>
</svg>
