<svg width="18" height="16" viewBox="0 0 18 16" fill="none" xmlns="http://www.w3.org/2000/svg">
<path d="M6.69045 6.3173H6.02195C5.78088 6.3173 5.58556 6.51262 5.58556 6.75369C5.58556 6.99395 5.78088 7.18927 6.02195 7.18927H6.69536C7.10479 7.18764 7.49706 7.02256 7.78472 6.73162C8.07321 7.02255 8.46466 7.18764 8.87409 7.18927H11.5373C12.102 7.186 12.5581 6.72754 12.5597 6.16284V3.82218C12.5564 3.26483 12.1119 2.81128 11.5545 2.79575L11.047 2.78268C11.1475 2.28498 11.1974 1.7783 11.1974 1.26997C11.1974 0.568782 10.6286 0 9.92658 0C9.22538 0 8.6566 0.568803 8.6566 1.26997C8.65578 1.59442 8.55036 1.90905 8.35586 2.16812L7.88269 2.80228C7.58849 2.44516 7.14963 2.23758 6.68625 2.23758H6.02184C5.78076 2.23758 5.58544 2.43289 5.58544 2.67397C5.58544 2.91423 5.78076 3.10955 6.02184 3.10955H6.69525C7.06873 3.10955 7.37192 3.41192 7.37274 3.78541V5.64216C7.37192 5.82195 7.3 5.99438 7.1717 6.12106C7.04421 6.24773 6.87106 6.31893 6.69045 6.3173ZM9.05955 2.69125C9.36519 2.28019 9.53028 1.78248 9.53273 1.27008C9.53273 1.05024 9.71088 0.871281 9.93153 0.871281C10.1514 0.871281 10.3303 1.05026 10.3303 1.27008C10.3303 1.7498 10.2797 2.22869 10.18 2.69778L10.0909 3.1162H10.0901C10.0639 3.24287 10.095 3.37445 10.175 3.47579C10.256 3.57713 10.3769 3.63842 10.5068 3.64169L11.5398 3.66784C11.624 3.6703 11.691 3.73813 11.6918 3.8223V6.16295C11.6918 6.24876 11.6232 6.31741 11.5374 6.31741H8.88289C8.6655 6.31823 8.46121 6.21444 8.33371 6.03874L8.21848 5.87938C8.23156 5.80175 8.23892 5.72329 8.23973 5.64402V3.78564L9.05955 2.69125ZM16.0811 8.5205C15.3415 8.36686 14.5733 8.57853 14.0176 9.08931C13.4619 8.57772 12.6929 8.36606 11.9533 8.5205C11.1973 8.72073 10.5819 9.27071 10.2992 10.0005C9.92736 10.7989 9.96086 11.7273 10.3907 12.4956C11.1532 13.7598 13.636 15.8143 13.7406 15.8994V15.9002C13.8182 15.9648 13.9163 15.9999 14.0177 15.9999C14.1214 16.0016 14.2228 15.9664 14.3029 15.9002C14.4075 15.8153 16.8893 13.76 17.6502 12.4964V12.4956C18.0826 11.7282 18.1169 10.7982 17.7418 10.0005C17.4582 9.26908 16.8403 8.71827 16.0811 8.5205ZM16.8983 12.0468C16.3516 12.9531 14.6819 14.424 14.0175 14.9929C13.3637 14.4241 11.6858 12.9531 11.1383 12.0468C10.8572 11.518 10.8425 10.8879 11.0991 10.3469C11.2699 9.87701 11.654 9.51579 12.1345 9.37524C12.2334 9.35317 12.3356 9.34173 12.4369 9.34255C12.9199 9.36216 13.3685 9.59425 13.6644 9.97671C13.7461 10.0887 13.876 10.1549 14.015 10.1549C14.1539 10.1549 14.2839 10.0887 14.3656 9.97671C14.3893 9.94402 14.9646 9.17664 15.8913 9.37523C16.3711 9.51579 16.756 9.877 16.9268 10.3469C17.1842 10.8863 17.1737 11.5156 16.8983 12.0468ZM7.89805 15.564C7.89724 14.7909 7.66514 14.035 7.23119 13.3951C6.79725 12.7552 6.18187 12.2592 5.46353 11.9723C6.05601 11.3896 6.23744 10.5054 5.92199 9.73627C5.60654 8.96644 4.85796 8.46385 4.02601 8.46385C3.19488 8.46385 2.44549 8.96644 2.13085 9.73627C1.81541 10.5053 1.99683 11.3895 2.58932 11.9723C1.87097 12.2592 1.25478 12.7552 0.820836 13.3951C0.386075 14.035 0.153976 14.791 0.152344 15.564C0.152344 15.6792 0.198927 15.7904 0.280649 15.8721C0.362373 15.9538 0.472698 15.9996 0.588754 15.9996H7.46176C7.57781 15.9996 7.68813 15.9538 7.76987 15.8721C7.85159 15.7904 7.89805 15.6793 7.89805 15.564ZM2.85083 10.5168C2.85002 10.0404 3.13605 9.61049 3.57571 9.42743C4.0162 9.24519 4.52287 9.34571 4.85958 9.68242C5.19628 10.0191 5.29679 10.5258 5.11456 10.9663C4.9315 11.406 4.50164 11.692 4.0252 11.6912C3.37631 11.6912 2.85083 11.1657 2.85083 10.5168ZM1.05701 15.1284C1.19758 14.1698 1.7917 13.3371 2.65307 12.8941C3.51525 12.4511 4.5376 12.4511 5.39896 12.8941C6.26114 13.337 6.85526 14.1698 6.99583 15.1284H1.05701Z" fill="#5948A2"/>
</svg>
