<svg width="57" height="56" viewBox="0 0 57 56" fill="none" xmlns="http://www.w3.org/2000/svg">
<rect x="0.333984" width="56" height="56" rx="28" fill="#DAD3FE"/>
<path d="M23.8605 24.8449H22.6071C22.1551 24.8449 21.7888 25.2112 21.7888 25.6632C21.7888 26.1137 22.1551 26.4799 22.6071 26.4799H23.8697C24.6374 26.4768 25.3729 26.1673 25.9123 25.6218C26.4532 26.1673 27.1872 26.4768 27.9548 26.4799H32.9484C34.0073 26.4738 34.8623 25.6141 34.8654 24.5553V20.1666C34.8592 19.1215 34.0257 18.2711 32.9806 18.242L32.029 18.2175C32.2175 17.2843 32.311 16.3343 32.311 15.3812C32.311 14.0665 31.2445 13 29.9282 13C28.6135 13 27.547 14.0665 27.547 15.3812C27.5455 15.9895 27.3478 16.5795 26.9832 17.0652L26.096 18.2543C25.5443 17.5847 24.7215 17.1955 23.8526 17.1955H22.6069C22.1548 17.1955 21.7886 17.5617 21.7886 18.0137C21.7886 18.4642 22.1548 18.8304 22.6069 18.8304H23.8695C24.5698 18.8304 25.1383 19.3974 25.1398 20.0976V23.579C25.1383 23.9162 25.0034 24.2395 24.7628 24.477C24.5238 24.7145 24.1992 24.848 23.8605 24.8449ZM28.3026 18.0461C28.8756 17.2754 29.1852 16.3421 29.1898 15.3814C29.1898 14.9692 29.5238 14.6337 29.9375 14.6337C30.3497 14.6337 30.6853 14.9692 30.6853 15.3814C30.6853 16.2809 30.5903 17.1788 30.4033 18.0583L30.2363 18.8429H30.2348C30.1857 19.0804 30.244 19.3271 30.3941 19.5171C30.5458 19.7071 30.7726 19.822 31.0162 19.8282L32.9531 19.8772C33.1109 19.8818 33.2366 20.009 33.2381 20.1668V24.5555C33.2381 24.7164 33.1094 24.8451 32.9485 24.8451H27.9713C27.5637 24.8467 27.1807 24.6521 26.9416 24.3226L26.7256 24.0238C26.7501 23.8783 26.7639 23.7312 26.7654 23.5825V20.0981L28.3026 18.0461ZM41.468 28.9759C40.0812 28.6879 38.6409 29.0847 37.5989 30.0425C36.5569 29.0832 35.115 28.6864 33.7283 28.9759C32.3109 29.3514 31.1571 30.3826 30.6269 31.7509C29.9297 33.248 29.9925 34.9887 30.7985 36.4292C32.2282 38.7997 36.8834 42.6518 37.0796 42.8114V42.813C37.2251 42.934 37.409 42.9999 37.599 42.9999C37.7936 43.003 37.9836 42.9371 38.1338 42.813C38.3299 42.6536 42.9834 38.8 44.4101 36.4307V36.4292C45.2207 34.9903 45.2851 33.2466 44.5817 31.7509C44.05 30.3795 42.8915 29.3468 41.468 28.9759ZM43.0003 35.5877C41.9751 37.287 38.8446 40.0451 37.5987 41.1116C36.3729 40.0451 33.2268 37.287 32.2003 35.5877C31.6731 34.5963 31.6456 33.4148 32.1267 32.4005C32.447 31.5194 33.1671 30.8421 34.0681 30.5786C34.2536 30.5372 34.4451 30.5157 34.6351 30.5173C35.5407 30.5541 36.3819 30.9892 36.9366 31.7063C37.0899 31.9163 37.3335 32.0404 37.594 32.0404C37.8545 32.0404 38.0981 31.9163 38.2514 31.7063C38.2958 31.645 39.3745 30.2062 41.1122 30.5785C42.0117 30.8421 42.7334 31.5194 43.0536 32.4005C43.5363 33.4118 43.5167 34.5917 43.0003 35.5877ZM26.1248 42.1825C26.1232 40.733 25.6881 39.3156 24.8744 38.1159C24.0608 36.9161 22.9069 35.9859 21.56 35.4481C22.6709 34.3556 23.0111 32.6976 22.4197 31.2555C21.8282 29.8121 20.4246 28.8697 18.8647 28.8697C17.3063 28.8697 15.9012 29.8121 15.3113 31.2555C14.7198 32.6974 15.06 34.3554 16.1709 35.4481C14.824 35.9859 13.6686 36.9161 12.855 38.1159C12.0398 39.3157 11.6046 40.7331 11.6016 42.1825C11.6016 42.3986 11.6889 42.607 11.8421 42.7602C11.9954 42.9135 12.2022 42.9993 12.4198 42.9993H25.3067C25.5243 42.9993 25.7312 42.9135 25.8844 42.7602C26.0376 42.607 26.1248 42.3986 26.1248 42.1825ZM16.6612 32.719C16.6597 31.8257 17.196 31.0197 18.0204 30.6764C18.8463 30.3347 19.7963 30.5232 20.4276 31.1545C21.0589 31.7859 21.2474 32.7359 20.9057 33.5618C20.5625 34.3862 19.7565 34.9225 18.8632 34.9209C17.6465 34.9209 16.6612 33.9357 16.6612 32.719ZM13.2978 41.3658C13.5614 39.5684 14.6754 38.007 16.2904 37.1764C17.907 36.3459 19.8239 36.3459 21.439 37.1764C23.0556 38.0069 24.1695 39.5683 24.4331 41.3658H13.2978Z" fill="#5948A2"/>
</svg>
