<svg width="20" height="20" viewBox="0 0 20 20" fill="none" xmlns="http://www.w3.org/2000/svg">
<path d="M1.00586 5.8C1.00586 4.11984 1.00586 3.27976 1.33284 2.63803C1.62046 2.07354 2.0794 1.6146 2.64389 1.32698C3.28562 1 4.1257 1 5.80586 1H14.2059C15.886 1 16.7261 1 17.3678 1.32698C17.9323 1.6146 18.3913 2.07354 18.6789 2.63803C19.0059 3.27976 19.0059 4.11984 19.0059 5.8V14.2C19.0059 15.8802 19.0059 16.7202 18.6789 17.362C18.3913 17.9265 17.9323 18.3854 17.3678 18.673C16.7261 19 15.886 19 14.2059 19H5.80586C4.1257 19 3.28562 19 2.64389 18.673C2.0794 18.3854 1.62046 17.9265 1.33284 17.362C1.00586 16.7202 1.00586 15.8802 1.00586 14.2V5.8Z" stroke="white" stroke-width="2" stroke-linecap="round" stroke-linejoin="round"/>
<path d="M7.00586 7.5L4.00586 13H16.0059L11.5059 5.5L9.00586 9L7.00586 7.5Z" stroke="white" stroke-width="2" stroke-linecap="round" stroke-linejoin="round"/>
</svg>
