<svg width="56" height="56" viewBox="0 0 56 56" fill="none" xmlns="http://www.w3.org/2000/svg">
<rect width="56" height="56" rx="28" fill="#DECB6C" fill-opacity="0.2"/>
<path d="M19.1494 26.8412C19.0561 26.2404 19.0078 25.6248 19.0078 24.998C19.0078 18.3706 24.4157 12.998 31.0867 12.998C37.7577 12.998 43.1656 18.3706 43.1656 24.998C43.1656 26.4952 42.8897 27.9282 42.3855 29.2498C42.2808 29.5243 42.2285 29.6615 42.2047 29.7687C42.1812 29.8748 42.1721 29.9495 42.1695 30.0582C42.1669 30.1679 42.1818 30.2888 42.2116 30.5305L42.8154 35.4358C42.8808 35.9668 42.9135 36.2324 42.8252 36.4254C42.7478 36.5945 42.6103 36.7288 42.4394 36.8023C42.2444 36.8862 41.9798 36.8474 41.4504 36.7698L36.6725 36.0694C36.423 36.0328 36.2983 36.0146 36.1847 36.0152C36.0723 36.0158 35.9945 36.0241 35.8845 36.0473C35.7734 36.0706 35.6313 36.1238 35.3473 36.2302C34.0223 36.7265 32.5864 36.998 31.0867 36.998C30.4594 36.998 29.8433 36.9505 29.2418 36.859M21.4552 42.998C25.9025 42.998 29.5078 39.3044 29.5078 34.748C29.5078 30.1917 25.9025 26.498 21.4552 26.498C17.0078 26.498 13.4025 30.1917 13.4025 34.748C13.4025 35.6639 13.5482 36.545 13.8171 37.3681C13.9308 37.7161 13.9876 37.8901 14.0063 38.009C14.0258 38.133 14.0292 38.2027 14.0219 38.3281C14.015 38.4482 13.9849 38.584 13.9248 38.8555L13.0078 42.998L17.5 42.3845C17.7452 42.3511 17.8678 42.3343 17.9749 42.335C18.0876 42.3358 18.1474 42.3419 18.258 42.364C18.363 42.3849 18.5191 42.44 18.8312 42.5501C19.6537 42.8404 20.5365 42.998 21.4552 42.998Z" stroke="url(#paint0_linear_2229_36413)" stroke-width="3" stroke-linecap="round" stroke-linejoin="round"/>
<defs>
<linearGradient id="paint0_linear_2229_36413" x1="38.6602" y1="12.998" x2="30.9207" y2="43.7122" gradientUnits="userSpaceOnUse">
<stop stop-color="#F0933C"/>
<stop offset="1" stop-color="#DDCB6C"/>
</linearGradient>
</defs>
</svg>
