<svg width="21" height="20" viewBox="0 0 21 20" fill="none" xmlns="http://www.w3.org/2000/svg">
<path d="M3.99843 0C2.14719 0 0.628906 1.52288 0.628906 3.37412V16.6305C0.628906 18.4817 2.14719 20 3.99843 20H17.2548C19.106 20 20.6243 18.4817 20.6243 16.6305V3.37412C20.6243 1.52288 19.106 0 17.2548 0H3.99843ZM3.99843 1.81975H17.2548C18.1303 1.81975 18.8092 2.49865 18.8092 3.37412V16.6305C18.8092 17.5059 18.1303 18.1848 17.2548 18.1848H3.99843C3.12296 18.1848 2.44406 17.5059 2.44406 16.6305V3.37412C2.44406 2.49865 3.12296 1.81975 3.99843 1.81975ZM8.12503 4.70102C7.90335 4.71515 7.69452 4.80996 7.53797 4.96755L5.8446 6.67815L5.52293 6.30019C5.36737 6.11602 5.14504 6.00118 4.90482 5.98092C4.6646 5.96067 4.42617 6.03666 4.24198 6.19219C4.05781 6.34774 3.94297 6.57008 3.92272 6.8103C3.90246 7.05052 3.97846 7.28895 4.13399 7.47314L5.09786 8.61048C5.17937 8.70627 5.27987 8.78411 5.39301 8.83907C5.50614 8.89402 5.62945 8.92491 5.75514 8.92977C5.88082 8.93463 6.00615 8.91335 6.12319 8.86729C6.24023 8.82123 6.34644 8.75138 6.4351 8.66217L8.82696 6.24849C8.99681 6.07739 9.09173 5.84583 9.09085 5.60475C9.08997 5.36366 8.99335 5.1328 8.82226 4.96295C8.73111 4.87252 8.62185 4.80242 8.50165 4.75727C8.38145 4.71213 8.25317 4.69295 8.12503 4.70102ZM10.7765 6.01758C10.6567 6.01732 10.538 6.04074 10.4273 6.0865C10.3166 6.13227 10.216 6.19946 10.1314 6.28423C10.0467 6.369 9.97962 6.46967 9.93399 6.58046C9.88837 6.69124 9.8651 6.80994 9.86551 6.92975C9.8657 7.04917 9.88942 7.16738 9.93532 7.27763C9.98121 7.38788 10.0484 7.48801 10.133 7.57229C10.2176 7.65658 10.318 7.72336 10.4284 7.76884C10.5388 7.81431 10.6571 7.83759 10.7765 7.83733H16.4253C16.6659 7.83694 16.8965 7.7412 17.0667 7.57108C17.2368 7.40096 17.3325 7.17034 17.3329 6.92975C17.3333 6.81023 17.3102 6.69181 17.2648 6.58125C17.2193 6.47069 17.1526 6.37018 17.0683 6.28545C16.984 6.20073 16.8838 6.13346 16.7735 6.08749C16.6632 6.04153 16.5449 6.01777 16.4253 6.01758H10.7765ZM8.23302 11.0724C8.10475 11.0656 7.97649 11.086 7.85668 11.1323C7.73688 11.1787 7.62826 11.2499 7.53797 11.3413L5.8446 13.0519L5.52293 12.6705C5.36688 12.4868 5.1443 12.3726 4.90409 12.353C4.66389 12.3334 4.42574 12.41 4.24198 12.5659C4.05781 12.7215 3.94297 12.9438 3.92272 13.184C3.90247 13.4243 3.97846 13.6627 4.13399 13.8469L5.09786 14.9796C5.17896 15.0758 5.27914 15.1541 5.39205 15.2096C5.50497 15.265 5.62817 15.2965 5.75387 15.3019C5.87956 15.3073 6.005 15.2865 6.12226 15.2409C6.23952 15.1954 6.34605 15.126 6.4351 15.0371L8.82697 12.6176C8.99646 12.4466 9.09116 12.2153 9.09027 11.9745C9.08939 11.7337 8.993 11.5031 8.82225 11.3332C8.66424 11.1773 8.45473 11.0845 8.23302 11.0724ZM10.7765 12.3924C10.6571 12.3922 10.5388 12.4155 10.4284 12.4609C10.318 12.5064 10.2176 12.5732 10.133 12.6575C10.0484 12.7418 9.98121 12.8419 9.93532 12.9521C9.88942 13.0624 9.8657 13.1806 9.86551 13.3C9.8657 13.4194 9.88942 13.5376 9.93532 13.6479C9.98121 13.7581 10.0484 13.8583 10.133 13.9426C10.2176 14.0268 10.318 14.0936 10.4284 14.1391C10.5388 14.1846 10.6571 14.2079 10.7765 14.2076H16.4253C16.6659 14.2072 16.8965 14.1115 17.0667 13.9413C17.2368 13.7712 17.3325 13.5406 17.3329 13.3C17.3325 13.0594 17.2368 12.8288 17.0667 12.6587C16.8965 12.4886 16.6659 12.3928 16.4253 12.3924H10.7765Z" fill="white"/>
</svg>
