<svg width="22" height="20" viewBox="0 0 22 20" fill="none" xmlns="http://www.w3.org/2000/svg">
<path d="M16.0059 1L11.0059 5L6.00586 1M5.80586 19H16.2059C17.886 19 18.7261 19 19.3678 18.673C19.9323 18.3854 20.3913 17.9265 20.6789 17.362C21.0059 16.7202 21.0059 15.8802 21.0059 14.2V9.8C21.0059 8.11984 21.0059 7.27976 20.6789 6.63803C20.3913 6.07354 19.9323 5.6146 19.3678 5.32698C18.7261 5 17.886 5 16.2059 5H5.80586C4.1257 5 3.28562 5 2.64389 5.32698C2.0794 5.6146 1.62046 6.07354 1.33284 6.63803C1.00586 7.27976 1.00586 8.11984 1.00586 9.8V14.2C1.00586 15.8802 1.00586 16.7202 1.33284 17.362C1.62046 17.9265 2.0794 18.3854 2.64389 18.673C3.28562 19 4.1257 19 5.80586 19Z" stroke="white" stroke-width="2" stroke-linecap="round" stroke-linejoin="round"/>
</svg>
