<svg width="31" height="31" viewBox="0 0 31 31" fill="none" xmlns="http://www.w3.org/2000/svg">
<path d="M6.27054 7.74219C8.61481 5.35084 11.8816 3.86719 15.4949 3.86719C19.1082 3.86719 22.375 5.35084 24.7192 7.74219M21.2715 11.6172C19.8524 10.0317 17.7901 9.03385 15.4949 9.03385C13.1996 9.03385 11.1373 10.0317 9.71824 11.6172M15.4948 21.9505C17.4458 21.9505 19.3191 22.2833 21.0611 22.8951C21.119 22.9154 21.148 22.9256 21.1937 22.9457C21.6077 23.1282 21.9257 23.5769 21.9606 24.0281C21.9645 24.0778 21.9645 24.1219 21.9645 24.2101C21.9645 24.5108 21.9645 24.6611 21.977 24.7877C22.0981 26.0137 23.068 26.9836 24.294 27.1047C24.4206 27.1172 24.5709 27.1172 24.8716 27.1172H25.188C25.7829 27.1172 26.0803 27.1172 26.3277 27.0684C27.3561 26.8657 28.16 26.0618 28.3627 25.0335C28.4115 24.786 28.4115 24.4886 28.4115 23.8937V23.6377C28.4115 23.0238 28.4115 22.7169 28.3459 22.3651C28.1993 21.5783 27.6277 20.6049 27.0121 20.0937C26.7368 19.865 26.55 19.7609 26.1766 19.5526C23.0149 17.7888 19.3722 16.7839 15.4948 16.7839C11.6174 16.7839 7.97467 17.7888 4.81297 19.5526C4.43954 19.7609 4.25283 19.865 3.97751 20.0937C3.36184 20.6049 2.79024 21.5783 2.64367 22.3651C2.57812 22.7169 2.57812 23.0238 2.57812 23.6377V23.8937C2.57812 24.4886 2.57812 24.786 2.6269 25.0335C2.8296 26.0618 3.63353 26.8657 4.66185 27.0684C4.90928 27.1172 5.20672 27.1172 5.80161 27.1172H6.11802C6.41867 27.1172 6.56899 27.1172 6.69561 27.1047C7.92161 26.9836 8.89153 26.0137 9.01259 24.7877C9.02509 24.6611 9.02509 24.5108 9.02509 24.2101C9.02509 24.1219 9.02509 24.0778 9.02895 24.0281C9.06387 23.5769 9.38185 23.1282 9.79593 22.9457C9.84161 22.9256 9.87057 22.9154 9.92849 22.8951C11.6704 22.2833 13.5438 21.9505 15.4948 21.9505Z" stroke="#4260AF" stroke-width="3" stroke-linecap="round" stroke-linejoin="round"/>
</svg>
