<svg width="57" height="56" viewBox="0 0 57 56" fill="none" xmlns="http://www.w3.org/2000/svg">
<rect x="0.5" width="56" height="56" rx="28" fill="#4260AF" fill-opacity="0.2"/>
<path d="M17.7958 18.9922C20.5182 16.2151 24.3118 14.4922 28.5079 14.4922C32.704 14.4922 36.4977 16.2151 39.2201 18.9922M35.2162 23.4922C33.5682 21.6509 31.1734 20.4922 28.5079 20.4922C25.8424 20.4922 23.4475 21.6509 21.7996 23.4922M28.5078 35.4922C30.7735 35.4922 32.949 35.8786 34.9719 36.5891C35.0392 36.6127 35.0728 36.6246 35.1258 36.6479C35.6067 36.8598 35.976 37.3809 36.0165 37.9048C36.021 37.9626 36.021 38.0138 36.021 38.1162C36.021 38.4654 36.021 38.6399 36.0355 38.787C36.1761 40.2107 37.3025 41.3371 38.7262 41.4777C38.8733 41.4922 39.0478 41.4922 39.397 41.4922H39.7644C40.4552 41.4922 40.8007 41.4922 41.088 41.4355C42.2822 41.2002 43.2158 40.2666 43.4512 39.0724C43.5078 38.785 43.5078 38.4396 43.5078 37.7488V37.4515C43.5078 36.7386 43.5078 36.3822 43.4317 35.9736C43.2615 35.06 42.5977 33.9296 41.8827 33.3358C41.563 33.0703 41.3462 32.9494 40.9125 32.7075C37.2409 30.6593 33.0106 29.4922 28.5078 29.4922C24.005 29.4922 19.7748 30.6593 16.1031 32.7075C15.6695 32.9494 15.4526 33.0703 15.1329 33.3358C14.4179 33.9296 13.7541 35.06 13.5839 35.9736C13.5078 36.3822 13.5078 36.7386 13.5078 37.4515V37.7488C13.5078 38.4396 13.5078 38.785 13.5644 39.0724C13.7998 40.2666 14.7334 41.2002 15.9276 41.4355C16.215 41.4922 16.5604 41.4922 17.2512 41.4922H17.6187C17.9678 41.4922 18.1424 41.4922 18.2894 41.4777C19.7131 41.3371 20.8395 40.2107 20.9801 38.787C20.9946 38.6399 20.9946 38.4654 20.9946 38.1162C20.9946 38.0138 20.9946 37.9626 20.9991 37.9048C21.0396 37.3809 21.4089 36.8598 21.8898 36.6479C21.9428 36.6246 21.9765 36.6127 22.0437 36.5891C24.0666 35.8786 26.2421 35.4922 28.5078 35.4922Z" stroke="#4260AF" stroke-width="3" stroke-linecap="round" stroke-linejoin="round"/>
</svg>
