<svg width="16" height="17" viewBox="0 0 16 17" fill="none" xmlns="http://www.w3.org/2000/svg">
<path d="M8 0.333984C6.41775 0.333984 4.87103 0.803176 3.55544 1.68223C2.23985 2.56128 1.21447 3.81071 0.608967 5.27252C0.00346629 6.73432 -0.15496 8.34286 0.153721 9.8947C0.462403 11.4466 1.22433 12.872 2.34315 13.9908C3.46197 15.1097 4.88743 15.8716 6.43928 16.1803C7.99113 16.4889 9.59966 16.3305 11.0615 15.725C12.5233 15.1195 13.7727 14.0941 14.6518 12.7785C15.5308 11.463 16 9.91623 16 8.33398C16 6.21225 15.1571 4.17742 13.6569 2.67713C12.1566 1.17684 10.1217 0.333984 8 0.333984ZM12.9493 13.2833C11.7222 14.507 10.0835 15.23 8.35248 15.3114C6.62144 15.3929 4.92209 14.8269 3.58552 13.7239C2.24896 12.6208 1.37093 11.0597 1.12252 9.34461C0.874116 7.62955 1.27312 5.88344 2.24179 4.4465C3.21047 3.00956 4.67942 1.98473 6.36242 1.57168C8.04543 1.15863 9.82194 1.38696 11.3458 2.21218C12.8697 3.0374 14.0317 4.40039 14.6055 6.03559C15.1793 7.67078 15.1238 9.46104 14.4498 11.0575C14.0984 11.8896 13.5888 12.6455 12.9493 13.2833Z" fill="#6CE9A6"/>
<path d="M6.49911 3.83398H4.49911C4.23397 3.83446 3.97984 3.94011 3.79252 4.12777C3.60521 4.31542 3.5 4.56973 3.5 4.83487V6.83309C3.5 7.09824 3.60521 7.35255 3.79252 7.5402C3.97984 7.72785 4.23397 7.83351 4.49911 7.83398H6.49911C6.76409 7.83398 7.01822 7.72872 7.20559 7.54135C7.39296 7.35398 7.49822 7.09985 7.49822 6.83487V4.83309C7.49822 4.56811 7.39296 4.31399 7.20559 4.12662C7.01822 3.93925 6.76409 3.83398 6.49911 3.83398ZM6.49911 6.83487H4.49911V4.83309H6.49911V6.83487Z" fill="#6CE9A6"/>
<path d="M11.4991 3.83398H9.49911C9.23397 3.83446 8.97984 3.94011 8.79252 4.12777C8.60521 4.31542 8.5 4.56973 8.5 4.83487V6.83309C8.5 7.09824 8.60521 7.35255 8.79252 7.5402C8.97984 7.72785 9.23397 7.83351 9.49911 7.83398H11.4991C11.7641 7.83398 12.0182 7.72872 12.2056 7.54135C12.393 7.35398 12.4982 7.09985 12.4982 6.83487V4.83309C12.4982 4.56811 12.393 4.31399 12.2056 4.12662C12.0182 3.93925 11.7641 3.83398 11.4991 3.83398ZM11.4991 6.83487H9.49911V4.83309H11.4991V6.83487Z" fill="#6CE9A6"/>
<path d="M6.49911 8.83398H4.49911C4.23397 8.83446 3.97984 8.94011 3.79252 9.12777C3.60521 9.31542 3.5 9.56973 3.5 9.83487V11.8349C3.5 12.1 3.60521 12.3543 3.79252 12.542C3.97984 12.7296 4.23397 12.8353 4.49911 12.8358H6.49911C6.76409 12.8358 7.01822 12.7305 7.20559 12.5431C7.39296 12.3558 7.49822 12.1016 7.49822 11.8366V9.83487C7.49846 9.70352 7.47278 9.57341 7.42268 9.45198C7.37257 9.33056 7.29902 9.22021 7.20622 9.12725C7.11342 9.03428 7.0032 8.96053 6.88186 8.91021C6.76053 8.85989 6.63047 8.83398 6.49911 8.83398ZM6.49911 11.8349H4.49911V9.83487H6.49911V11.8349Z" fill="#6CE9A6"/>
<path d="M11.4991 8.83398H9.49911C9.23397 8.83446 8.97984 8.94011 8.79252 9.12777C8.60521 9.31542 8.5 9.56973 8.5 9.83487V11.8349C8.5 12.1 8.60521 12.3543 8.79252 12.542C8.97984 12.7296 9.23397 12.8353 9.49911 12.8358H11.4991C11.7641 12.8358 12.0182 12.7305 12.2056 12.5431C12.393 12.3558 12.4982 12.1016 12.4982 11.8366V9.83487C12.4985 9.70352 12.4728 9.57341 12.4227 9.45198C12.3726 9.33056 12.299 9.22021 12.2062 9.12725C12.1134 9.03428 12.0032 8.96053 11.8819 8.91021C11.7605 8.85989 11.6305 8.83398 11.4991 8.83398ZM11.4991 11.8349H9.49911V9.83487H11.4991V11.8349Z" fill="#6CE9A6"/>
</svg>
