<svg width="56" height="56" viewBox="0 0 56 56" fill="none" xmlns="http://www.w3.org/2000/svg">
<rect width="56" height="56" rx="28" fill="#2C69E6" fill-opacity="0.2"/>
<path d="M23.5246 24.8449H22.2711C21.8191 24.8449 21.4529 25.2112 21.4529 25.6632C21.4529 26.1137 21.8191 26.4799 22.2711 26.4799H23.5338C24.3015 26.4768 25.037 26.1673 25.5763 25.6218C26.1172 26.1673 26.8512 26.4768 27.6189 26.4799H32.6125C33.6713 26.4738 34.5264 25.6141 34.5294 24.5553V20.1666C34.5233 19.1215 33.6897 18.2711 32.6447 18.242L31.6931 18.2175C31.8816 17.2843 31.975 16.3343 31.975 15.3812C31.975 14.0665 30.9085 13 29.5923 13C28.2776 13 27.2111 14.0665 27.2111 15.3812C27.2096 15.9895 27.0119 16.5795 26.6472 17.0652L25.76 18.2543C25.2084 17.5847 24.3855 17.1955 23.5167 17.1955H22.2709C21.8189 17.1955 21.4527 17.5617 21.4527 18.0137C21.4527 18.4642 21.8189 18.8304 22.2709 18.8304H23.5336C24.2338 18.8304 24.8023 19.3974 24.8039 20.0976V23.579C24.8023 23.9162 24.6675 24.2395 24.4269 24.477C24.1879 24.7145 23.8632 24.848 23.5246 24.8449ZM27.9666 18.0461C28.5397 17.2754 28.8493 16.3421 28.8538 15.3814C28.8538 14.9692 29.1879 14.6337 29.6016 14.6337C30.0138 14.6337 30.3493 14.9692 30.3493 15.3814C30.3493 16.2809 30.2543 17.1788 30.0674 18.0583L29.9004 18.8429H29.8988C29.8498 19.0804 29.908 19.3271 30.0582 19.5171C30.2099 19.7071 30.4367 19.822 30.6803 19.8282L32.6171 19.8772C32.775 19.8818 32.9006 20.009 32.9021 20.1668V24.5555C32.9021 24.7164 32.7734 24.8451 32.6125 24.8451H27.6354C27.2278 24.8467 26.8447 24.6521 26.6057 24.3226L26.3896 24.0238C26.4142 23.8783 26.4279 23.7312 26.4295 23.5825V20.0981L27.9666 18.0461ZM41.132 28.9759C39.7453 28.6879 38.3049 29.0847 37.263 30.0425C36.221 29.0832 34.7791 28.6864 33.3923 28.9759C31.9749 29.3514 30.8211 30.3826 30.291 31.7509C29.5938 33.248 29.6566 34.9887 30.4626 36.4292C31.8922 38.7997 36.5475 42.6518 36.7436 42.8114V42.813C36.8892 42.934 37.0731 42.9999 37.2631 42.9999C37.4577 43.003 37.6477 42.9371 37.7979 42.813C37.994 42.6536 42.6475 38.8 44.0742 36.4307V36.4292C44.8848 34.9903 44.9492 33.2466 44.2458 31.7509C43.7141 30.3795 42.5556 29.3468 41.132 28.9759ZM42.6643 35.5877C41.6392 37.287 38.5086 40.0451 37.2628 41.1116C36.0369 40.0451 32.8909 37.287 31.8643 35.5877C31.3372 34.5963 31.3096 33.4148 31.7908 32.4005C32.111 31.5194 32.8312 30.8421 33.7322 30.5786C33.9176 30.5372 34.1092 30.5157 34.2992 30.5173C35.2048 30.5541 36.046 30.9892 36.6007 31.7063C36.7539 31.9163 36.9975 32.0404 37.2581 32.0404C37.5186 32.0404 37.7622 31.9163 37.9154 31.7063C37.9599 31.645 39.0386 30.2062 40.7763 30.5785C41.6757 30.8421 42.3974 31.5194 42.7177 32.4005C43.2004 33.4118 43.1807 34.5917 42.6643 35.5877ZM25.7888 42.1825C25.7873 40.733 25.3521 39.3156 24.5385 38.1159C23.7248 36.9161 22.571 35.9859 21.2241 35.4481C22.335 34.3556 22.6752 32.6976 22.0837 31.2555C21.4922 29.8121 20.0887 28.8697 18.5288 28.8697C16.9704 28.8697 15.5653 29.8121 14.9753 31.2555C14.3839 32.6974 14.724 34.3554 15.835 35.4481C14.4881 35.9859 13.3327 36.9161 12.519 38.1159C11.7039 39.3157 11.2687 40.7331 11.2656 42.1825C11.2656 42.3986 11.353 42.607 11.5062 42.7602C11.6594 42.9135 11.8663 42.9993 12.0839 42.9993H24.9708C25.1884 42.9993 25.3952 42.9135 25.5485 42.7602C25.7017 42.607 25.7888 42.3986 25.7888 42.1825ZM16.3253 32.719C16.3238 31.8257 16.8601 31.0197 17.6844 30.6764C18.5104 30.3347 19.4604 30.5232 20.0917 31.1545C20.723 31.7859 20.9115 32.7359 20.5698 33.5618C20.2265 34.3862 19.4205 34.9225 18.5272 34.9209C17.3106 34.9209 16.3253 33.9357 16.3253 32.719ZM12.9619 41.3658C13.2254 39.5684 14.3394 38.007 15.9545 37.1764C17.5711 36.3459 19.488 36.3459 21.103 37.1764C22.7196 38.0069 23.8336 39.5683 24.0972 41.3658H12.9619Z" fill="#2C69E6"/>
</svg>
