<svg width="56" height="56" viewBox="0 0 56 56" fill="none" xmlns="http://www.w3.org/2000/svg">
<rect width="56" height="56" rx="28" fill="white" fill-opacity="0.2"/>
<path d="M17.3926 14C12.9491 14 9.33203 17.6171 9.33203 22.0606V33.9394C9.33203 38.3829 12.9491 42 17.3926 42H38.6048C43.0483 42 46.6654 38.3829 46.6654 33.9394V22.0606C46.6654 17.6171 43.0483 14 38.6048 14H17.3926ZM17.3926 16.5455H38.6048C41.6821 16.5455 44.1199 18.9832 44.1199 22.0606V33.9394C44.1199 37.0168 41.6821 39.4545 38.6048 39.4545H17.3926C14.3153 39.4545 11.8775 37.0168 11.8775 33.9394V22.0606C11.8775 18.9832 14.3153 16.5455 17.3926 16.5455ZM24.1938 20.7216C23.5557 20.7173 22.9728 21.3573 22.9741 22.0606V33.9394C22.972 33.9836 22.972 34.0278 22.9741 34.072C23.0166 34.5104 23.2698 34.9172 23.6257 35.1187C23.9815 35.3202 24.429 35.3101 24.7771 35.0928L34.1237 29.1534C34.4925 28.921 34.7342 28.4617 34.7342 27.9934C34.7342 27.5251 34.4925 27.0658 34.1237 26.8333L24.7771 20.8939C24.5999 20.7838 24.3972 20.7239 24.1938 20.7216ZM25.4002 24.3674L31.0877 28L25.4002 31.6193V24.3674Z" fill="white"/>
</svg>
