<svg width="16" height="17" viewBox="0 0 16 17" fill="none" xmlns="http://www.w3.org/2000/svg">
<path d="M7.99888 3.20703C6.11317 3.20703 4.57031 4.74989 4.57031 6.6356C4.57031 8.52132 6.11317 10.0642 7.99888 10.0642C9.8846 10.0642 11.4275 8.52132 11.4275 6.6356C11.4275 4.74989 9.8846 3.20703 7.99888 3.20703ZM7.99888 8.92132C6.74174 8.92132 5.71317 7.89275 5.71317 6.6356C5.71317 5.37846 6.74174 4.34989 7.99888 4.34989C9.25603 4.34989 10.2846 5.37846 10.2846 6.6356C10.2846 7.89275 9.25603 8.92132 7.99888 8.92132Z" fill="#FDA29B"/>
<path d="M8 0.349609C3.57143 0.349609 0 3.92104 0 8.34961C0 10.521 0.885714 12.521 2.28571 13.9496C2.62857 14.2925 3 14.6068 3.42857 14.8925C4.71429 15.8068 6.28571 16.321 8 16.321C9.71429 16.321 11.2857 15.7782 12.5714 14.8925C12.9714 14.6068 13.3429 14.2925 13.7143 13.9496C15.1429 12.4925 16 10.521 16 8.34961C16 3.92104 12.4286 0.349609 8 0.349609ZM8 15.2068C6.28571 15.2068 4.74286 14.5782 3.54286 13.5496C3.85714 12.521 4.8 11.7782 5.91429 11.7782H10.1143C11.2286 11.7782 12.1714 12.521 12.4857 13.5496C11.2571 14.5782 9.71429 15.2068 8 15.2068ZM13.3429 12.6353C12.7429 11.4353 11.5143 10.6353 10.1143 10.6353H5.91429C4.48571 10.6353 3.25714 11.4639 2.68571 12.6353C1.71429 11.4639 1.14286 9.97818 1.14286 8.34961C1.14286 4.57818 4.22857 1.49247 8 1.49247C11.7714 1.49247 14.8571 4.57818 14.8571 8.34961C14.8571 9.97818 14.2857 11.4639 13.3429 12.6353Z" fill="#FDA29B"/>
</svg>
